<svg width="897" height="346" viewBox="0 0 897 346" fill="none" xmlns="http://www.w3.org/2000/svg">
<g clip-path="url(#clip0_144_4)">
<path d="M279 339.687L337.024 306.187V239.187L279 205.687L220.976 239.187V306.187L279 339.687Z" stroke="white" stroke-width="9"/>
<path d="M226.927 218.25L232.03 218.088L244.619 239.893L241.927 244.231" stroke="white" stroke-width="5" stroke-linejoin="round"/>
<path d="M256.805 201L254.113 205.338L266.703 227.143L271.805 226.981" stroke="white" stroke-width="5" stroke-linejoin="round"/>
<path d="M322 289.687L324.411 285.187L349.589 285.187L352 289.687" stroke="white" stroke-width="5" stroke-linejoin="round"/>
<path d="M322 255.187L324.411 259.687L349.589 259.687L352 255.187" stroke="white" stroke-width="5" stroke-linejoin="round"/>
<path d="M337 106L278.976 139.5V206.5L337 240L395.024 206.5V139.5L337 106Z" stroke="white" stroke-width="9"/>
<path d="M389.073 227.437L383.97 227.599L371.381 205.794L374.073 201.456" stroke="white" stroke-width="5" stroke-linejoin="round"/>
<path d="M359.195 244.687L361.887 240.349L349.297 218.544L344.195 218.706" stroke="white" stroke-width="5" stroke-linejoin="round"/>
<path d="M294 156L291.589 160.5L266.411 160.5L264 156" stroke="white" stroke-width="5" stroke-linejoin="round"/>
<path d="M294 190.5L291.589 186L266.411 186L264 190.5" stroke="white" stroke-width="5" stroke-linejoin="round"/>
<path d="M279 6L337.024 39.5V106.5L279 140L220.976 106.5V39.5L279 6Z" stroke="white" stroke-width="9"/>
<path d="M226.927 127.437L232.03 127.599L244.619 105.794L241.927 101.456" stroke="white" stroke-width="5" stroke-linejoin="round"/>
<path d="M256.805 144.687L254.113 140.349L266.703 118.544L271.805 118.706" stroke="white" stroke-width="5" stroke-linejoin="round"/>
<path d="M206 56.0001L208.411 60.5001L233.589 60.5L236 56" stroke="white" stroke-width="5" stroke-linejoin="round"/>
<path d="M206 90.4999L208.411 85.9999L233.589 86L236 90.5" stroke="white" stroke-width="5" stroke-linejoin="round"/>
<path d="M221 106L279.024 139.5V206.5L221 240L162.976 206.5V139.5L221 106Z" stroke="white" stroke-width="9"/>
<path d="M227 126.981L232.103 127.143L244.692 105.338L242 101" stroke="white" stroke-width="5" stroke-linejoin="round"/>
<path d="M256.878 144.231L254.186 139.893L266.775 118.088L271.878 118.25" stroke="white" stroke-width="5" stroke-linejoin="round"/>
<path d="M242 245.231L244.692 240.893L232.102 219.088L227 219.25" stroke="white" stroke-width="5" stroke-linejoin="round"/>
<path d="M271.878 227.981L266.775 228.143L254.186 206.338L256.878 202" stroke="white" stroke-width="5" stroke-linejoin="round"/>
<path d="M148 156L150.411 160.5L175.589 160.5L178 156" stroke="white" stroke-width="5" stroke-linejoin="round"/>
<path d="M148 190.5L150.411 186L175.589 186L178 190.5" stroke="white" stroke-width="5" stroke-linejoin="round"/>
<path d="M264 156L266.411 160.5L291.589 160.5L294 156" stroke="white" stroke-width="5" stroke-linejoin="round"/>
<path d="M264 190.5L266.411 186L291.589 186L294 190.5" stroke="white" stroke-width="5" stroke-linejoin="round"/>
<path d="M336.83 305.835L336.83 238.835L394.854 205.335L452.878 238.835L452.878 305.835L394.854 339.335L336.83 305.835Z" stroke="white" stroke-width="9"/>
<path d="M352 290.149L349.589 285.649L324.411 285.649L322 290.149" stroke="white" stroke-width="5" stroke-linejoin="round"/>
<path d="M352 255.649L349.589 260.149L324.411 260.149L322 255.649" stroke="white" stroke-width="5" stroke-linejoin="round"/>
<path d="M468 291.5L465.589 287L440.411 287L438 291.5" stroke="white" stroke-width="5" stroke-linejoin="round"/>
<path d="M468 257L465.589 261.5L440.411 261.5L438 257" stroke="white" stroke-width="5" stroke-linejoin="round"/>
<path d="M358.631 243.596L361.323 239.258L348.734 217.453L343.631 217.615" stroke="white" stroke-width="5" stroke-linejoin="round"/>
<path d="M388.509 226.346L383.407 226.508L370.818 204.703L373.509 200.365" stroke="white" stroke-width="5" stroke-linejoin="round"/>
<path d="M389.126 39.8828H394.757L419.188 98.0986L443.664 39.8828H449.25L421.322 106H417.054L389.126 39.8828ZM387.401 39.8828H392.351L392.941 77.1191V106H387.401V39.8828ZM446.116 39.8828H451.066V106H445.48V77.1191L446.116 39.8828ZM508.964 101.232V106H471.773V101.232H508.964ZM473.453 39.8828V106H467.868V39.8828H473.453ZM504.332 69.5356V74.3037H471.773V69.5356H504.332ZM508.737 39.8828V44.6963H471.773V39.8828H508.737ZM538.889 106H523.904L523.995 101.232H538.889C543.642 101.232 547.729 100.172 551.15 98.0532C554.601 95.9038 557.265 92.937 559.142 89.1528C561.019 85.3687 561.958 80.979 561.958 75.9839V69.8081C561.958 65.9937 561.413 62.5425 560.323 59.4546C559.263 56.3667 557.734 53.7329 555.736 51.5532C553.738 49.3433 551.347 47.6479 548.562 46.4673C545.807 45.2866 542.719 44.6963 539.298 44.6963H523.631V39.8828H539.298C543.415 39.8828 547.184 40.5942 550.605 42.0171C554.056 43.4097 557.038 45.438 559.551 48.1021C562.094 50.7358 564.046 53.8994 565.409 57.5928C566.801 61.2861 567.498 65.4033 567.498 69.9443V75.9839C567.498 80.5249 566.801 84.6421 565.409 88.3354C564.046 92.0288 562.094 95.1924 559.551 97.8262C557.008 100.46 553.996 102.488 550.514 103.911C547.033 105.304 543.158 106 538.889 106ZM526.401 39.8828V106H520.816V39.8828H526.401ZM619.174 89.7432C619.174 87.9268 618.872 86.3071 618.266 84.8843C617.661 83.4614 616.662 82.1899 615.269 81.0698C613.907 79.9194 612.06 78.8599 609.729 77.8911C607.428 76.8921 604.552 75.9082 601.101 74.9395C597.801 74.001 594.819 72.9717 592.155 71.8516C589.491 70.7314 587.206 69.4448 585.298 67.9917C583.421 66.5386 581.983 64.8433 580.984 62.9058C579.985 60.938 579.486 58.6523 579.486 56.0488C579.486 53.5059 580.031 51.1899 581.121 49.1011C582.21 47.0122 583.739 45.2109 585.707 43.6973C587.705 42.1836 590.051 41.0181 592.746 40.2007C595.47 39.3833 598.452 38.9746 601.691 38.9746C606.323 38.9746 610.319 39.8525 613.68 41.6084C617.07 43.3643 619.689 45.7407 621.536 48.7378C623.413 51.7046 624.351 55.0347 624.351 58.728H618.766C618.766 55.8521 618.084 53.2939 616.722 51.0537C615.39 48.7832 613.453 47.0122 610.91 45.7407C608.397 44.439 605.324 43.7881 601.691 43.7881C598.059 43.7881 595.001 44.3481 592.519 45.4683C590.066 46.5581 588.205 48.0264 586.933 49.873C585.692 51.6895 585.071 53.7178 585.071 55.958C585.071 57.5322 585.374 58.9854 585.979 60.3174C586.585 61.6191 587.569 62.8452 588.931 63.9956C590.324 65.1157 592.155 66.1753 594.426 67.1743C596.696 68.1431 599.497 69.0664 602.827 69.9443C606.338 70.9131 609.457 71.9878 612.181 73.1685C614.906 74.3491 617.207 75.7114 619.083 77.2554C620.96 78.769 622.383 80.54 623.352 82.5684C624.321 84.5967 624.805 86.958 624.805 89.6523C624.805 92.3467 624.23 94.7686 623.08 96.918C621.959 99.0371 620.37 100.838 618.312 102.322C616.283 103.805 613.876 104.94 611.091 105.728C608.336 106.515 605.324 106.908 602.055 106.908C599.118 106.908 596.197 106.53 593.291 105.773C590.384 105.016 587.72 103.851 585.298 102.276C582.907 100.672 580.984 98.6133 579.531 96.1006C578.108 93.5879 577.397 90.5908 577.397 87.1094H582.937C582.937 89.8945 583.497 92.2407 584.617 94.1479C585.737 96.0552 587.221 97.5991 589.067 98.7798C590.944 99.9604 593.003 100.823 595.243 101.368C597.514 101.883 599.784 102.14 602.055 102.14C605.536 102.14 608.548 101.625 611.091 100.596C613.665 99.5669 615.647 98.1289 617.04 96.2822C618.463 94.4053 619.174 92.2256 619.174 89.7432ZM652.505 74.4854V79.1626H630.754V74.4854H652.505ZM453.155 131.883V198H447.615V131.883H453.155ZM475.814 131.883V136.696H425V131.883H475.814ZM487.258 156.995V198H481.854V148.866H487.122L487.258 156.995ZM504.65 148.503L504.514 153.498C503.908 153.407 503.318 153.332 502.743 153.271C502.167 153.21 501.547 153.18 500.881 153.18C498.52 153.18 496.446 153.619 494.66 154.497C492.904 155.345 491.42 156.541 490.209 158.084C488.999 159.598 488.075 161.384 487.439 163.443C486.804 165.471 486.44 167.651 486.35 169.982L484.352 170.754C484.352 167.545 484.685 164.563 485.351 161.808C486.017 159.053 487.031 156.646 488.393 154.588C489.786 152.499 491.526 150.879 493.615 149.729C495.734 148.548 498.217 147.958 501.062 147.958C501.759 147.958 502.44 148.019 503.106 148.14C503.802 148.23 504.317 148.352 504.65 148.503ZM541.25 189.19V163.852C541.25 161.521 540.766 159.507 539.797 157.812C538.829 156.117 537.406 154.815 535.529 153.907C533.652 152.999 531.336 152.544 528.581 152.544C526.038 152.544 523.768 152.999 521.77 153.907C519.802 154.785 518.243 155.98 517.092 157.494C515.972 158.978 515.412 160.627 515.412 162.444L509.963 162.398C509.963 160.552 510.417 158.766 511.325 157.04C512.233 155.314 513.52 153.771 515.185 152.408C516.85 151.046 518.833 149.971 521.134 149.184C523.465 148.367 526.023 147.958 528.808 147.958C532.32 147.958 535.408 148.548 538.072 149.729C540.766 150.91 542.87 152.681 544.384 155.042C545.897 157.403 546.654 160.37 546.654 163.942V187.692C546.654 189.387 546.775 191.143 547.018 192.959C547.29 194.776 547.668 196.274 548.153 197.455V198H542.386C542.022 196.91 541.735 195.548 541.523 193.913C541.341 192.248 541.25 190.674 541.25 189.19ZM542.522 169.392L542.613 173.569H531.941C529.156 173.569 526.659 173.827 524.449 174.341C522.269 174.826 520.422 175.552 518.909 176.521C517.395 177.459 516.229 178.595 515.412 179.927C514.625 181.259 514.231 182.772 514.231 184.468C514.231 186.224 514.67 187.828 515.548 189.281C516.457 190.734 517.728 191.9 519.363 192.778C521.028 193.625 522.996 194.049 525.266 194.049C528.293 194.049 530.958 193.489 533.258 192.369C535.589 191.249 537.512 189.781 539.025 187.964C540.539 186.148 541.553 184.165 542.068 182.016L544.429 185.149C544.036 186.663 543.309 188.222 542.25 189.826C541.22 191.4 539.873 192.884 538.208 194.276C536.543 195.639 534.575 196.759 532.305 197.637C530.064 198.484 527.521 198.908 524.676 198.908C521.467 198.908 518.667 198.303 516.275 197.092C513.914 195.881 512.067 194.231 510.735 192.142C509.433 190.023 508.782 187.631 508.782 184.967C508.782 182.545 509.297 180.381 510.326 178.474C511.355 176.536 512.839 174.901 514.776 173.569C516.744 172.207 519.105 171.178 521.86 170.481C524.646 169.755 527.764 169.392 531.215 169.392H542.522ZM566.635 159.356V198H561.231V148.866H566.408L566.635 159.356ZM565.409 170.391L563.002 169.028C563.184 166.122 563.774 163.397 564.773 160.854C565.772 158.312 567.119 156.071 568.814 154.134C570.54 152.196 572.553 150.683 574.854 149.593C577.185 148.503 579.758 147.958 582.574 147.958C585.026 147.958 587.221 148.291 589.158 148.957C591.096 149.623 592.746 150.683 594.108 152.136C595.47 153.589 596.5 155.451 597.196 157.721C597.922 159.992 598.286 162.762 598.286 166.031V198H592.836V165.986C592.836 162.595 592.367 159.946 591.429 158.039C590.49 156.102 589.158 154.724 587.433 153.907C585.707 153.089 583.664 152.681 581.302 152.681C578.699 152.681 576.413 153.256 574.445 154.406C572.508 155.526 570.873 156.995 569.541 158.811C568.239 160.597 567.24 162.52 566.544 164.578C565.848 166.606 565.469 168.544 565.409 170.391ZM641.789 185.467C641.789 184.135 641.456 182.818 640.79 181.516C640.124 180.214 638.837 179.019 636.93 177.929C635.053 176.839 632.283 175.916 628.62 175.159C625.895 174.553 623.458 173.872 621.309 173.115C619.189 172.358 617.403 171.45 615.95 170.391C614.497 169.331 613.392 168.06 612.635 166.576C611.878 165.093 611.5 163.337 611.5 161.309C611.5 159.492 611.894 157.782 612.681 156.177C613.498 154.542 614.648 153.12 616.132 151.909C617.646 150.667 619.462 149.699 621.581 149.002C623.73 148.306 626.137 147.958 628.801 147.958C632.585 147.958 635.825 148.609 638.519 149.911C641.244 151.182 643.317 152.923 644.74 155.133C646.193 157.343 646.92 159.84 646.92 162.625H641.516C641.516 160.93 641.017 159.326 640.018 157.812C639.049 156.298 637.611 155.057 635.704 154.088C633.827 153.12 631.526 152.635 628.801 152.635C625.986 152.635 623.7 153.059 621.944 153.907C620.188 154.754 618.902 155.829 618.084 157.131C617.297 158.433 616.904 159.78 616.904 161.172C616.904 162.262 617.07 163.261 617.403 164.169C617.767 165.047 618.402 165.865 619.311 166.622C620.249 167.378 621.581 168.09 623.307 168.756C625.032 169.422 627.272 170.073 630.027 170.708C633.993 171.586 637.232 172.661 639.745 173.933C642.288 175.174 644.165 176.718 645.376 178.564C646.587 180.381 647.192 182.591 647.192 185.194C647.192 187.223 646.769 189.084 645.921 190.78C645.073 192.445 643.847 193.883 642.243 195.094C640.668 196.305 638.761 197.243 636.521 197.909C634.311 198.575 631.829 198.908 629.074 198.908C624.926 198.908 621.415 198.227 618.539 196.865C615.693 195.472 613.528 193.656 612.045 191.416C610.592 189.145 609.865 186.738 609.865 184.195H615.269C615.451 186.738 616.253 188.751 617.676 190.235C619.099 191.688 620.839 192.717 622.898 193.323C624.987 193.928 627.045 194.231 629.074 194.231C631.859 194.231 634.19 193.822 636.067 193.005C637.944 192.188 639.367 191.113 640.335 189.781C641.304 188.449 641.789 187.011 641.789 185.467ZM668.808 198H663.404V142.781C663.404 139.421 663.979 136.59 665.129 134.29C666.31 131.989 667.975 130.248 670.125 129.067C672.304 127.887 674.893 127.296 677.89 127.296C678.828 127.296 679.797 127.357 680.796 127.478C681.795 127.569 682.764 127.766 683.702 128.068L683.293 132.655C682.537 132.443 681.765 132.307 680.978 132.246C680.221 132.155 679.328 132.11 678.298 132.11C676.331 132.11 674.635 132.534 673.212 133.381C671.79 134.199 670.7 135.395 669.943 136.969C669.186 138.543 668.808 140.48 668.808 142.781V198ZM680.523 148.866V153.316H655.275V148.866H680.523ZM687.29 174.205V172.707C687.29 169.134 687.804 165.834 688.833 162.807C689.863 159.78 691.331 157.161 693.238 154.951C695.176 152.741 697.492 151.031 700.186 149.82C702.88 148.579 705.877 147.958 709.177 147.958C712.507 147.958 715.52 148.579 718.214 149.82C720.908 151.031 723.224 152.741 725.162 154.951C727.099 157.161 728.583 159.78 729.612 162.807C730.641 165.834 731.156 169.134 731.156 172.707V174.205C731.156 177.777 730.641 181.077 729.612 184.104C728.583 187.102 727.099 189.705 725.162 191.915C723.254 194.125 720.954 195.851 718.259 197.092C715.565 198.303 712.568 198.908 709.268 198.908C705.938 198.908 702.926 198.303 700.231 197.092C697.537 195.851 695.221 194.125 693.284 191.915C691.346 189.705 689.863 187.102 688.833 184.104C687.804 181.077 687.29 177.777 687.29 174.205ZM692.693 172.707V174.205C692.693 176.899 693.057 179.458 693.783 181.879C694.51 184.271 695.569 186.405 696.962 188.282C698.354 190.129 700.08 191.582 702.139 192.642C704.197 193.701 706.574 194.231 709.268 194.231C711.932 194.231 714.278 193.701 716.307 192.642C718.365 191.582 720.091 190.129 721.483 188.282C722.876 186.405 723.92 184.271 724.617 181.879C725.343 179.458 725.707 176.899 725.707 174.205V172.707C725.707 170.042 725.343 167.515 724.617 165.123C723.92 162.731 722.861 160.597 721.438 158.72C720.045 156.843 718.32 155.36 716.261 154.27C714.203 153.18 711.841 152.635 709.177 152.635C706.513 152.635 704.152 153.18 702.093 154.27C700.065 155.36 698.339 156.843 696.917 158.72C695.524 160.597 694.464 162.731 693.738 165.123C693.042 167.515 692.693 170.042 692.693 172.707ZM747.821 156.995V198H742.417V148.866H747.685L747.821 156.995ZM765.213 148.503L765.077 153.498C764.472 153.407 763.881 153.332 763.306 153.271C762.731 153.21 762.11 153.18 761.444 153.18C759.083 153.18 757.009 153.619 755.223 154.497C753.467 155.345 751.984 156.541 750.773 158.084C749.562 159.598 748.639 161.384 748.003 163.443C747.367 165.471 747.004 167.651 746.913 169.982L744.915 170.754C744.915 167.545 745.248 164.563 745.914 161.808C746.58 159.053 747.594 156.646 748.957 154.588C750.349 152.499 752.09 150.879 754.179 149.729C756.298 148.548 758.78 147.958 761.626 147.958C762.322 147.958 763.003 148.019 763.669 148.14C764.366 148.23 764.88 148.352 765.213 148.503ZM778.882 159.038V198H773.433V148.866H778.655L778.882 159.038ZM777.883 170.391L775.249 169.028C775.431 166.122 775.976 163.397 776.884 160.854C777.822 158.312 779.124 156.071 780.789 154.134C782.454 152.196 784.452 150.683 786.783 149.593C789.114 148.503 791.763 147.958 794.73 147.958C797.122 147.958 799.286 148.291 801.224 148.957C803.191 149.593 804.856 150.607 806.219 152C807.611 153.362 808.686 155.148 809.443 157.358C810.2 159.568 810.578 162.217 810.578 165.305V198H805.174V165.486C805.174 162.217 804.66 159.659 803.63 157.812C802.631 155.965 801.224 154.648 799.407 153.861C797.621 153.074 795.547 152.681 793.186 152.681C790.401 152.681 788.04 153.256 786.102 154.406C784.195 155.526 782.636 156.995 781.425 158.811C780.244 160.597 779.366 162.52 778.791 164.578C778.216 166.606 777.913 168.544 777.883 170.391ZM810.533 166.122L806.9 166.213C807.051 163.821 807.596 161.536 808.535 159.356C809.503 157.176 810.82 155.239 812.485 153.543C814.15 151.818 816.133 150.456 818.434 149.457C820.765 148.458 823.384 147.958 826.29 147.958C828.833 147.958 831.104 148.306 833.102 149.002C835.1 149.668 836.78 150.743 838.142 152.227C839.535 153.68 840.594 155.542 841.321 157.812C842.047 160.083 842.411 162.807 842.411 165.986V198H836.961V165.94C836.961 162.459 836.447 159.765 835.417 157.857C834.418 155.92 833.026 154.573 831.24 153.816C829.454 153.059 827.365 152.681 824.973 152.681C822.612 152.711 820.538 153.15 818.752 153.998C816.966 154.815 815.467 155.905 814.256 157.267C813.076 158.599 812.167 160.037 811.532 161.581C810.926 163.125 810.593 164.639 810.533 166.122ZM885.641 185.467C885.641 184.135 885.308 182.818 884.642 181.516C883.976 180.214 882.689 179.019 880.782 177.929C878.905 176.839 876.135 175.916 872.472 175.159C869.748 174.553 867.311 173.872 865.161 173.115C863.042 172.358 861.256 171.45 859.803 170.391C858.35 169.331 857.245 168.06 856.488 166.576C855.731 165.093 855.353 163.337 855.353 161.309C855.353 159.492 855.746 157.782 856.533 156.177C857.351 154.542 858.501 153.12 859.984 151.909C861.498 150.667 863.314 149.699 865.434 149.002C867.583 148.306 869.99 147.958 872.654 147.958C876.438 147.958 879.677 148.609 882.372 149.911C885.096 151.182 887.17 152.923 888.593 155.133C890.046 157.343 890.772 159.84 890.772 162.625H885.369C885.369 160.93 884.869 159.326 883.87 157.812C882.901 156.298 881.463 155.057 879.556 154.088C877.679 153.12 875.378 152.635 872.654 152.635C869.838 152.635 867.553 153.059 865.797 153.907C864.041 154.754 862.754 155.829 861.937 157.131C861.15 158.433 860.756 159.78 860.756 161.172C860.756 162.262 860.923 163.261 861.256 164.169C861.619 165.047 862.255 165.865 863.163 166.622C864.102 167.378 865.434 168.09 867.159 168.756C868.885 169.422 871.125 170.073 873.88 170.708C877.846 171.586 881.085 172.661 883.598 173.933C886.141 175.174 888.018 176.718 889.229 178.564C890.439 180.381 891.045 182.591 891.045 185.194C891.045 187.223 890.621 189.084 889.773 190.78C888.926 192.445 887.7 193.883 886.095 195.094C884.521 196.305 882.614 197.243 880.374 197.909C878.164 198.575 875.681 198.908 872.926 198.908C868.779 198.908 865.267 198.227 862.391 196.865C859.545 195.472 857.381 193.656 855.897 191.416C854.444 189.145 853.718 186.738 853.718 184.195H859.122C859.303 186.738 860.105 188.751 861.528 190.235C862.951 191.688 864.692 192.717 866.75 193.323C868.839 193.928 870.898 194.231 872.926 194.231C875.711 194.231 878.042 193.822 879.919 193.005C881.796 192.188 883.219 191.113 884.188 189.781C885.157 188.449 885.641 187.011 885.641 185.467Z" fill="white"/>
<circle cx="556" cy="238" r="12" fill="white"/>
<circle cx="556" cy="274" r="12" fill="white"/>
<circle cx="556" cy="310" r="12" fill="white"/>
<circle cx="630" cy="238" r="12" fill="white"/>
<circle cx="630" cy="274" r="12" fill="white"/>
<circle cx="630" cy="310" r="12" fill="white"/>
<circle cx="593" cy="292" r="12" fill="white"/>
<circle cx="593" cy="256" r="12" fill="white"/>
<line x1="556.228" y1="237.555" x2="593.228" y2="256.555" stroke="white"/>
<line x1="556.412" y1="237.717" x2="593.412" y2="291.717" stroke="white"/>
<line x1="556.219" y1="273.55" x2="593.219" y2="291.55" stroke="white"/>
<line x1="555.781" y1="309.55" x2="592.781" y2="291.55" stroke="white"/>
<line x1="629.781" y1="310.45" x2="592.781" y2="292.45" stroke="white"/>
<line x1="630.219" y1="274.45" x2="593.219" y2="292.45" stroke="white"/>
<line x1="630.412" y1="238.283" x2="593.412" y2="292.283" stroke="white"/>
<line x1="630.219" y1="238.45" x2="593.219" y2="256.45" stroke="white"/>
<line x1="629.781" y1="274.45" x2="592.781" y2="256.45" stroke="white"/>
<line x1="629.588" y1="310.283" x2="592.588" y2="256.283" stroke="white"/>
<line x1="555.588" y1="309.717" x2="592.588" y2="255.717" stroke="white"/>
<line x1="555.781" y1="273.55" x2="592.781" y2="255.55" stroke="white"/>
<circle cx="89.5212" cy="66.8509" r="9.35094" stroke="white" stroke-width="3"/>
<path d="M93.4642 73.8047C93.4606 74.2983 93.4551 74.9535 93.4486 75.8223C93.4224 79.3508 93.3699 86.4075 93.265 100.521L91.7972 298.113V298.124C91.7972 298.468 91.5669 299.095 91.0228 299.679C90.4874 300.254 89.8988 300.52 89.4613 300.52C89.0251 300.52 88.4399 300.255 87.9056 299.68C87.4313 299.169 87.1922 298.623 87.1381 298.258L87.1254 298.113C87.1221 297.672 87.1189 297.232 87.1156 296.793C87.1123 296.354 87.1091 295.915 87.1058 295.478C87.1026 295.04 87.0993 294.603 87.0961 294.167C87.0928 293.731 87.0895 293.296 87.0863 292.861C87.0831 292.427 87.0798 291.994 87.0765 291.562C87.0733 291.129 87.0709 290.697 87.0677 290.267C87.0645 289.836 87.0612 289.406 87.058 288.977C87.0548 288.548 87.0514 288.12 87.0482 287.692C87.045 287.265 87.0416 286.839 87.0385 286.413C87.0353 285.988 87.0328 285.563 87.0297 285.139C87.0265 284.715 87.023 284.291 87.0199 283.869C87.0168 283.447 87.0133 283.025 87.0101 282.604C87.007 282.184 87.0045 281.764 87.0013 281.345C86.9982 280.926 86.9947 280.508 86.9916 280.091C86.9885 279.674 86.9859 279.257 86.9828 278.842C86.9797 278.426 86.9761 278.011 86.973 277.598C86.9699 277.184 86.9673 276.771 86.9642 276.358C86.9612 275.946 86.9575 275.535 86.9545 275.124C86.9514 274.713 86.9487 274.303 86.9457 273.895C86.9426 273.486 86.9399 273.077 86.9369 272.67C86.9339 272.263 86.9301 271.857 86.9271 271.451C86.9241 271.046 86.9213 270.64 86.9183 270.236C86.9153 269.833 86.9125 269.43 86.9095 269.027C86.9066 268.625 86.9037 268.223 86.9008 267.822C86.8978 267.422 86.8949 267.022 86.892 266.623C86.889 266.224 86.8861 265.826 86.8832 265.429C86.8802 265.031 86.8773 264.634 86.8744 264.238C86.8714 263.843 86.8685 263.448 86.8656 263.054C86.8627 262.66 86.8597 262.266 86.8568 261.874C86.8539 261.482 86.8509 261.089 86.848 260.698C86.8451 260.308 86.8421 259.917 86.8392 259.528C86.8363 259.139 86.8333 258.751 86.8304 258.363C86.8276 257.976 86.8245 257.588 86.8217 257.202C86.8188 256.816 86.8157 256.431 86.8129 256.047C86.81 255.663 86.8069 255.279 86.8041 254.896C86.8012 254.514 86.7991 254.131 86.7963 253.75C86.7934 253.369 86.7903 252.988 86.7875 252.608C86.7847 252.229 86.7815 251.85 86.7787 251.473C86.7759 251.095 86.7737 250.717 86.7709 250.341C86.7681 249.964 86.7649 249.589 86.7621 249.214C86.7593 248.839 86.757 248.465 86.7543 248.092C86.7515 247.719 86.7482 247.346 86.7455 246.975C86.7427 246.603 86.7404 246.231 86.7377 245.861C86.7349 245.491 86.7316 245.122 86.7289 244.754C86.7176 243.241 86.7077 241.857 86.6967 240.369C86.694 240.007 86.6915 239.646 86.6888 239.285C86.6862 238.924 86.6827 238.564 86.6801 238.205C86.6774 237.846 86.6749 237.488 86.6722 237.131C86.6696 236.773 86.6671 236.416 86.6644 236.061C86.6618 235.705 86.6593 235.349 86.6566 234.994C86.654 234.64 86.6514 234.286 86.6488 233.934C86.6462 233.581 86.6436 233.228 86.641 232.877C86.6384 232.526 86.6358 232.175 86.6332 231.825C86.6306 231.475 86.628 231.126 86.6254 230.777C86.6228 230.429 86.6201 230.082 86.6176 229.735C86.615 229.389 86.6123 229.042 86.6097 228.697C86.6072 228.352 86.6045 228.007 86.6019 227.663C86.5916 226.278 86.5818 224.936 86.5717 223.575C86.5691 223.238 86.5663 222.901 86.5638 222.564C86.5613 222.228 86.5595 221.892 86.557 221.558C86.5545 221.223 86.5517 220.89 86.5492 220.557C86.5467 220.223 86.5448 219.89 86.5424 219.559C86.5399 219.227 86.537 218.896 86.5345 218.566C86.5321 218.236 86.5292 217.907 86.5267 217.578C86.5243 217.249 86.5223 216.921 86.5199 216.594C86.5175 216.267 86.5155 215.94 86.5131 215.614C86.5106 215.289 86.5077 214.964 86.5052 214.64C86.5028 214.315 86.5008 213.992 86.4984 213.669C86.496 213.346 86.493 213.024 86.4906 212.703C86.4882 212.382 86.4861 212.061 86.4838 211.741C86.4814 211.421 86.4793 211.102 86.4769 210.784C86.4746 210.466 86.4724 210.148 86.4701 209.831C86.4677 209.514 86.4646 209.198 86.4623 208.883C86.4599 208.567 86.4578 208.252 86.4554 207.938C86.4531 207.624 86.4509 207.311 86.4486 206.998C86.4463 206.686 86.4441 206.374 86.4418 206.063C86.4395 205.752 86.4372 205.441 86.4349 205.132C86.4326 204.822 86.4304 204.513 86.4281 204.205C86.4258 203.897 86.4235 203.589 86.4213 203.282C86.419 202.976 86.4167 202.669 86.4144 202.364C86.4122 202.059 86.4098 201.755 86.4076 201.451C86.4053 201.147 86.403 200.843 86.4008 200.541C86.3985 200.239 86.3962 199.937 86.3939 199.636C86.3917 199.335 86.3893 199.034 86.3871 198.734C86.3849 198.435 86.3825 198.136 86.3802 197.838C86.378 197.54 86.3756 197.242 86.3734 196.945C86.3712 196.649 86.3697 196.353 86.3676 196.058C86.3654 195.762 86.3629 195.468 86.3607 195.174C86.3585 194.88 86.3561 194.586 86.3539 194.294C86.3517 194.001 86.3502 193.709 86.348 193.418C86.3459 193.127 86.3433 192.837 86.3412 192.547C86.339 192.257 86.3365 191.968 86.3344 191.68C86.3322 191.391 86.3306 191.103 86.3285 190.816C86.3264 190.529 86.3238 190.243 86.3217 189.957C86.3195 189.672 86.3179 189.387 86.3158 189.103C86.3137 188.818 86.3111 188.535 86.309 188.252C86.3069 187.969 86.3052 187.687 86.3031 187.406C86.301 187.125 86.2983 186.844 86.2963 186.563C86.2942 186.283 86.2925 186.004 86.2904 185.726C86.2883 185.447 86.2866 185.169 86.2845 184.892C86.2825 184.614 86.2798 184.337 86.2777 184.062C86.2757 183.786 86.2739 183.51 86.2719 183.235C86.2698 182.961 86.268 182.687 86.266 182.414C86.264 182.141 86.2622 181.868 86.2601 181.596C86.2581 181.324 86.2553 181.053 86.2533 180.782C86.2513 180.512 86.2494 180.242 86.2474 179.973C86.2454 179.703 86.2436 179.435 86.2416 179.167C86.2396 178.899 86.2377 178.632 86.2357 178.365C86.2337 178.099 86.2318 177.833 86.2299 177.568C86.2279 177.303 86.226 177.038 86.224 176.774C86.222 176.511 86.2201 176.248 86.2181 175.985C86.2162 175.723 86.2142 175.46 86.2123 175.199C86.2103 174.938 86.2084 174.678 86.2064 174.418C86.2045 174.158 86.2025 173.899 86.2006 173.641C86.1986 173.382 86.1966 173.123 86.1947 172.866C86.1928 172.609 86.1907 172.352 86.1888 172.097C86.1869 171.841 86.1859 171.586 86.184 171.331C86.1821 171.077 86.18 170.823 86.1781 170.569C86.1762 170.316 86.1741 170.063 86.1722 169.812C86.1704 169.56 86.1682 169.308 86.1664 169.058C86.1645 168.807 86.1634 168.557 86.1615 168.308C86.1596 168.058 86.1575 167.809 86.1556 167.562C86.1538 167.313 86.1516 167.065 86.1498 166.818C86.1479 166.572 86.1467 166.325 86.1449 166.08C86.1431 165.835 86.1409 165.59 86.139 165.346C86.1372 165.102 86.135 164.858 86.1332 164.615C86.1314 164.372 86.1301 164.129 86.1283 163.888C86.1265 163.646 86.1242 163.405 86.1224 163.165C86.1207 162.925 86.1193 162.684 86.1176 162.445C86.1158 162.206 86.1144 161.968 86.1127 161.73C86.1109 161.493 86.1086 161.255 86.1068 161.019C86.1051 160.782 86.1037 160.546 86.1019 160.311C86.1002 160.075 86.0978 159.841 86.0961 159.606C86.0943 159.372 86.0929 159.139 86.0912 158.906C86.0895 158.673 86.088 158.441 86.0863 158.209C86.0846 157.978 86.0822 157.747 86.0804 157.517C86.0787 157.286 86.0773 157.056 86.0756 156.827C86.0739 156.598 86.0724 156.369 86.0707 156.142C86.069 155.914 86.0675 155.686 86.0658 155.46C86.0641 155.233 86.0626 155.007 86.0609 154.782C86.0592 154.557 86.0577 154.332 86.056 154.108C86.0544 153.884 86.0518 153.66 86.0502 153.438C86.0485 153.215 86.0469 152.992 86.0453 152.771C86.0436 152.549 86.042 152.328 86.0404 152.107C86.0388 151.887 86.0372 151.667 86.0355 151.447C86.0339 151.228 86.0323 151.01 86.0306 150.792C86.029 150.574 86.0274 150.356 86.0258 150.14C86.0241 149.923 86.0225 149.706 86.0209 149.49C86.0193 149.275 86.0176 149.06 86.016 148.846C86.0144 148.631 86.0137 148.417 86.0121 148.204C86.0105 147.991 86.0088 147.778 86.0072 147.566C86.0056 147.354 86.0039 147.142 86.0023 146.932C86.0008 146.721 85.999 146.51 85.9974 146.301C85.9959 146.091 85.9941 145.882 85.9926 145.674C85.991 145.465 85.9902 145.257 85.9886 145.05C85.9871 144.843 85.9853 144.636 85.9838 144.43C85.9822 144.224 85.9804 144.018 85.9789 143.813C85.9774 143.609 85.9765 143.404 85.975 143.2C85.9735 142.997 85.9716 142.793 85.9701 142.591C85.9686 142.388 85.9667 142.187 85.9652 141.985C85.9637 141.784 85.9628 141.583 85.9613 141.383C85.9598 141.183 85.9579 140.982 85.9564 140.783C85.9549 140.584 85.954 140.385 85.9525 140.188C85.951 139.99 85.9491 139.792 85.9476 139.596C85.9462 139.399 85.9452 139.202 85.9437 139.007C85.9423 138.811 85.9403 138.616 85.9388 138.422C85.9374 138.227 85.9364 138.033 85.9349 137.84C85.9335 137.647 85.9315 137.454 85.9301 137.262C85.9286 137.07 85.9276 136.878 85.9261 136.687C85.9247 136.496 85.9237 136.305 85.9222 136.115C85.9208 135.925 85.9188 135.736 85.9174 135.547C85.916 135.358 85.9148 135.17 85.9135 134.982C85.9121 134.795 85.9109 134.607 85.9095 134.421C85.9082 134.234 85.906 134.049 85.9047 133.863C85.9033 133.678 85.9021 133.493 85.9008 133.309C85.8994 133.124 85.8982 132.94 85.8969 132.757C85.8955 132.574 85.8943 132.391 85.8929 132.209C85.8916 132.027 85.8904 131.845 85.889 131.664C85.8877 131.483 85.8865 131.303 85.8851 131.123C85.8838 130.943 85.8826 130.764 85.8812 130.585C85.8799 130.406 85.8777 130.228 85.8763 130.05C85.875 129.872 85.8737 129.695 85.8724 129.519C85.8711 129.342 85.8698 129.166 85.8685 128.99C85.8672 128.815 85.8659 128.64 85.8646 128.466C85.8633 128.291 85.862 128.117 85.8607 127.943C85.8594 127.77 85.8581 127.597 85.8568 127.425C85.8555 127.253 85.8552 127.081 85.8539 126.91C85.8526 126.739 85.8512 126.568 85.85 126.398C85.8487 126.228 85.8473 126.059 85.8461 125.89C85.8448 125.721 85.8434 125.552 85.8422 125.384C85.8409 125.216 85.8395 125.048 85.8383 124.881C85.837 124.714 85.8356 124.548 85.8344 124.382C85.8331 124.216 85.8326 124.051 85.8314 123.886C85.8302 123.721 85.8287 123.556 85.8275 123.393C85.8263 123.229 85.8248 123.066 85.8236 122.903C85.8224 122.741 85.8209 122.579 85.8197 122.417C85.8185 122.255 85.818 122.093 85.8168 121.933C85.8156 121.772 85.8141 121.612 85.8129 121.452C85.8117 121.293 85.8101 121.134 85.809 120.976C85.8078 120.817 85.8072 120.659 85.806 120.501C85.8037 120.192 85.8015 119.868 85.7992 119.562C85.798 119.407 85.7964 119.252 85.7953 119.098C85.7941 118.943 85.7935 118.789 85.7924 118.636C85.7912 118.482 85.7896 118.329 85.7885 118.177C85.7873 118.024 85.7866 117.872 85.7855 117.721C85.7844 117.569 85.7827 117.418 85.7816 117.268C85.7805 117.117 85.7798 116.968 85.7787 116.818C85.7776 116.669 85.7759 116.52 85.7748 116.371C85.7737 116.223 85.7729 116.075 85.7719 115.928C85.7708 115.78 85.77 115.634 85.7689 115.487C85.7678 115.341 85.7661 115.194 85.765 115.049C85.7639 114.904 85.7632 114.759 85.7621 114.614C85.761 114.47 85.7602 114.326 85.7592 114.183C85.7581 114.039 85.7563 113.896 85.7552 113.754C85.7542 113.612 85.7534 113.469 85.7523 113.328C85.7513 113.187 85.7504 113.045 85.7494 112.904C85.7483 112.764 85.7475 112.624 85.7465 112.484C85.7454 112.345 85.7446 112.206 85.7435 112.067C85.7425 111.929 85.7406 111.791 85.7396 111.653C85.7386 111.516 85.7377 111.378 85.7367 111.241C85.7357 111.105 85.7348 110.969 85.7338 110.833C85.7317 110.561 85.7299 110.292 85.7279 110.024C85.7269 109.891 85.726 109.758 85.725 109.625C85.724 109.492 85.723 109.359 85.722 109.228C85.7211 109.096 85.7201 108.964 85.7191 108.833C85.7181 108.702 85.7172 108.571 85.7162 108.441C85.7152 108.311 85.7142 108.182 85.7133 108.053C85.7123 107.924 85.7113 107.795 85.7103 107.667C85.7094 107.539 85.7083 107.411 85.7074 107.284C85.7065 107.157 85.7054 107.03 85.7045 106.903C85.7035 106.777 85.7025 106.652 85.7015 106.526C85.7006 106.401 85.7005 106.276 85.6996 106.151C85.6987 106.027 85.6976 105.903 85.6967 105.779C85.6957 105.656 85.6946 105.533 85.6937 105.41C85.6928 105.288 85.6917 105.165 85.6908 105.043C85.6899 104.921 85.6888 104.8 85.6879 104.68C85.687 104.559 85.6868 104.438 85.6859 104.318C85.685 104.198 85.6839 104.079 85.683 103.96C85.6821 103.841 85.6809 103.722 85.6801 103.604C85.6792 103.486 85.679 103.368 85.6781 103.251C85.6772 103.134 85.676 103.017 85.6752 102.9C85.6743 102.784 85.6731 102.668 85.6722 102.553C85.6714 102.437 85.6711 102.322 85.6703 102.207C85.6694 102.093 85.6682 101.979 85.6674 101.865C85.6665 101.752 85.6653 101.638 85.6644 101.525C85.6636 101.413 85.6633 101.299 85.6625 101.188C85.6616 101.076 85.6604 100.964 85.6595 100.854C85.6587 100.742 85.6584 100.631 85.6576 100.521C85.6568 100.41 85.6555 100.301 85.6547 100.191C85.6539 100.082 85.6535 99.9728 85.6527 99.8643C85.6519 99.7558 85.6506 99.6476 85.6498 99.54C85.649 99.4325 85.6486 99.3254 85.6478 99.2188C85.647 99.112 85.6457 99.0053 85.6449 98.8994C85.6441 98.7934 85.6437 98.6872 85.6429 98.582C85.6422 98.4771 85.6418 98.3726 85.641 98.2686C85.6402 98.1642 85.6388 98.0595 85.6381 97.9561C85.6373 97.8528 85.6369 97.7499 85.6361 97.6475C85.6353 97.5449 85.6349 97.4426 85.6342 97.3408C85.6334 97.239 85.632 97.1371 85.6312 97.0361C85.6305 96.9352 85.63 96.8345 85.6293 96.7344C85.6285 96.6344 85.6281 96.5347 85.6273 96.4355C85.6266 96.3362 85.6251 96.2372 85.6244 96.1387C85.6237 96.0401 85.6232 95.9415 85.6224 95.8438C85.6217 95.7462 85.6212 95.6485 85.6205 95.5518C85.6198 95.455 85.6192 95.3586 85.6185 95.2627C85.6178 95.1666 85.6173 95.0709 85.6166 94.9756C85.6159 94.8803 85.6143 94.7849 85.6136 94.6904C85.6129 94.5961 85.6124 94.5018 85.6117 94.4082C85.611 94.3147 85.6104 94.2216 85.6097 94.1289C85.6091 94.0362 85.6085 93.9435 85.6078 93.8516C85.6064 93.6624 85.6053 93.4887 85.6039 93.3027C85.6032 93.2123 85.6026 93.1219 85.6019 93.0322C85.6013 92.9426 85.6006 92.8535 85.6 92.7646C85.5993 92.6756 85.5987 92.5863 85.598 92.498C85.5974 92.4101 85.5967 92.3225 85.5961 92.2354C85.5954 92.1479 85.5948 92.0603 85.5941 91.9736C85.5935 91.887 85.5928 91.8007 85.5922 91.7148C85.5915 91.6289 85.5908 91.5432 85.5902 91.458C85.5896 91.373 85.5889 91.2884 85.5883 91.2041C85.5876 91.1197 85.5869 91.0348 85.5863 90.9512C85.5857 90.8678 85.585 90.7848 85.5844 90.7021C85.5837 90.6192 85.583 90.5363 85.5824 90.4541C85.5818 90.372 85.581 90.2903 85.5804 90.209C85.5798 90.1277 85.5791 90.0464 85.5785 89.9658C85.5779 89.8852 85.5781 89.8045 85.5775 89.7246C85.5769 89.6447 85.5762 89.5646 85.5756 89.4854C85.575 89.4062 85.5742 89.3274 85.5736 89.249C85.573 89.1706 85.5722 89.0924 85.5717 89.0146C85.5711 88.9369 85.5703 88.8593 85.5697 88.7822C85.5691 88.7054 85.5693 88.6289 85.5687 88.5527C85.5682 88.4764 85.5673 88.3998 85.5668 88.3242C85.5662 88.2487 85.5654 88.1734 85.5648 88.0986C85.5643 88.0238 85.5644 87.9492 85.5638 87.875C85.5633 87.8008 85.5624 87.7268 85.5619 87.6533C85.5613 87.5801 85.5605 87.5071 85.5599 87.4346C85.5594 87.3618 85.5595 87.2889 85.559 87.2168C85.5584 87.1448 85.5575 87.0732 85.557 87.002C85.5565 86.9306 85.5556 86.8588 85.5551 86.7881C85.5545 86.7175 85.5546 86.6471 85.5541 86.5771C85.5536 86.5072 85.5526 86.4375 85.5521 86.3682C85.5516 86.2989 85.5507 86.2298 85.5502 86.1611C85.5497 86.0925 85.5497 86.024 85.5492 85.9561C85.5487 85.8883 85.5477 85.821 85.5472 85.7539C85.5467 85.6867 85.5468 85.6193 85.5463 85.5527C85.5458 85.4861 85.5448 85.4195 85.5443 85.3535C85.5438 85.2878 85.5438 85.2223 85.5433 85.1572C85.5428 85.0919 85.5419 85.0265 85.5414 84.9619C85.5409 84.8973 85.5409 84.8325 85.5404 84.7686C85.5399 84.7048 85.5389 84.6413 85.5385 84.5781C85.538 84.5148 85.5379 84.4513 85.5375 84.3887C85.537 84.3262 85.537 84.264 85.5365 84.2021C85.536 84.1401 85.535 84.078 85.5345 84.0166C85.5341 83.9554 85.534 83.8945 85.5336 83.834C85.5331 83.7732 85.5321 83.7124 85.5316 83.6523C85.5312 83.5923 85.5311 83.5321 85.5306 83.4727C85.5302 83.4134 85.5301 83.3545 85.5297 83.2959C85.5292 83.2371 85.5281 83.1783 85.5277 83.1201C85.5273 83.0619 85.5272 83.0039 85.5267 82.9463C85.5263 82.8887 85.5262 82.8313 85.5258 82.7744C85.5253 82.7175 85.5242 82.6608 85.5238 82.6045C85.5234 82.5482 85.5232 82.4922 85.5228 82.4365C85.5224 82.3809 85.5223 82.3255 85.5219 82.2705C85.5214 82.2154 85.5213 82.16 85.5209 82.1055C85.5205 82.0511 85.5193 81.9971 85.5189 81.9434C85.5185 81.8895 85.5183 81.8355 85.5179 81.7822C85.5175 81.729 85.5174 81.6757 85.517 81.623C85.5166 81.5704 85.5164 81.5178 85.516 81.4658C85.5156 81.4138 85.5154 81.362 85.515 81.3105C85.5146 81.2591 85.5134 81.208 85.5131 81.1572C85.5127 81.1063 85.5125 81.0552 85.5121 81.0049C85.5117 80.9546 85.5115 80.9042 85.5111 80.8545C85.5107 80.8048 85.5105 80.7552 85.5101 80.7061C85.5098 80.6569 85.5095 80.6081 85.5092 80.5596C85.5088 80.5111 85.5085 80.4629 85.5082 80.415C85.5078 80.3671 85.5076 80.3189 85.5072 80.2715C85.5068 80.2241 85.5066 80.1767 85.5062 80.1299C85.5059 80.083 85.5056 80.0356 85.5052 79.9893C85.5049 79.9431 85.5036 79.8972 85.5033 79.8516C85.503 79.8058 85.5027 79.7601 85.5023 79.7148C85.502 79.6696 85.5017 79.6247 85.5013 79.5801C85.501 79.5354 85.5007 79.4904 85.5004 79.4463L85.4984 79.1846C85.4981 79.1417 85.4978 79.099 85.4974 79.0566C85.4971 79.0141 85.4968 78.9717 85.4965 78.9297C85.4961 78.8878 85.4968 78.8461 85.4965 78.8047C85.4962 78.7632 85.4958 78.7216 85.4955 78.6807C85.4952 78.6398 85.4948 78.5989 85.4945 78.5586C85.4942 78.5183 85.4938 78.4783 85.4935 78.4385C85.4932 78.3986 85.4928 78.3587 85.4926 78.3193C85.4923 78.28 85.4919 78.241 85.4916 78.2021C85.4913 78.1633 85.4909 78.1243 85.4906 78.0859C85.4903 78.0477 85.4899 78.0094 85.4896 77.9717C85.4893 77.934 85.4889 77.8966 85.4886 77.8594C85.4884 77.8221 85.4879 77.7848 85.4877 77.748C85.4874 77.7112 85.4879 77.6741 85.4877 77.6377C85.4874 77.6014 85.487 77.5651 85.4867 77.5293C85.4864 77.4936 85.486 77.4581 85.4857 77.4229C85.4855 77.3875 85.485 77.3523 85.4847 77.3174C85.4845 77.2826 85.484 77.2481 85.4838 77.2139C85.4835 77.1796 85.484 77.1451 85.4838 77.1113C85.4835 77.0774 85.483 77.0432 85.4828 77.0098C85.4825 76.9764 85.4821 76.9431 85.4818 76.9102C85.4816 76.8774 85.4811 76.8448 85.4808 76.8125C85.4806 76.78 85.4811 76.7469 85.4808 76.7148L85.4789 76.5254C85.4787 76.4944 85.4781 76.4632 85.4779 76.4326C85.4777 76.4021 85.4781 76.3718 85.4779 76.3418C85.4777 76.3116 85.4771 76.2817 85.4769 76.252C85.4767 76.2222 85.4762 76.1924 85.476 76.1631C85.4757 76.1339 85.4762 76.1049 85.476 76.0762C85.4757 76.0474 85.4752 76.0186 85.475 75.9902C85.4748 75.9618 85.4742 75.9333 85.474 75.9053C85.4738 75.8774 85.4742 75.8497 85.474 75.8223C85.4738 75.7948 85.4732 75.7673 85.473 75.7402C85.4728 75.7131 85.4732 75.6859 85.473 75.6592L85.4711 75.501C85.4709 75.4754 85.4713 75.45 85.4711 75.4248C85.4709 75.3994 85.4703 75.3737 85.4701 75.3486C85.4699 75.3237 85.4703 75.2989 85.4701 75.2744C85.4699 75.2499 85.4693 75.2253 85.4691 75.2012C85.4689 75.177 85.4693 75.1527 85.4691 75.1289C85.4689 75.1051 85.4683 75.081 85.4681 75.0576C85.468 75.0343 85.4673 75.0112 85.4672 74.9883C85.467 74.9653 85.4673 74.9425 85.4672 74.9199C85.467 74.8973 85.4664 74.8747 85.4662 74.8525C85.466 74.8303 85.4663 74.808 85.4662 74.7861C85.466 74.7645 85.4654 74.743 85.4652 74.7217C85.4651 74.7002 85.4654 74.6783 85.4652 74.6572C85.4651 74.6362 85.4644 74.6154 85.4642 74.5947V74.4727C85.4641 74.4527 85.4634 74.4327 85.4633 74.4131C85.4631 74.3935 85.4634 74.3738 85.4633 74.3545C85.4631 74.3354 85.4624 74.3166 85.4623 74.2979C85.4621 74.2789 85.4624 74.2598 85.4623 74.2412C85.4621 74.2228 85.4614 74.2046 85.4613 74.1865V74.0791C85.4612 74.0617 85.4605 74.0444 85.4603 74.0273C85.4602 74.0102 85.4605 73.9924 85.4603 73.9756C85.4602 73.9589 85.4595 73.9421 85.4594 73.9258V73.8291C85.4593 73.8209 85.4584 73.8128 85.4584 73.8047H93.4642Z" fill="white" stroke="white" stroke-width="3"/>
<circle cx="89.5212" cy="66.8509" r="7.85094" fill="white"/>
<path d="M77.4028 111.619V95.5579L73.5673 95.5579C61.7609 95.5579 49.5474 105.986 49.5474 120.549C49.5474 150.514 106.242 161.841 106.242 181.679C106.242 201.516 69.3246 207.808 69.3246 231.661C69.3246 255.513 96.4732 254.974 96.4732 267.559V281.224C104.324 281.224 104.324 273.313 104.324 267.559C104.324 250.839 78.9734 244.126 78.9734 231.661C78.9734 219.195 118.258 208.228 118.258 181.679C118.258 155.129 62.1205 134.932 62.1205 120.549C62.1205 115.395 67.3345 111.619 69.492 111.619H77.4028Z" fill="white" stroke="white"/>
<path d="M101.43 111.619V95.5579L105.266 95.5579C117.072 95.5579 129.285 105.986 129.285 120.549C129.285 150.514 72.5908 161.841 72.5908 181.679C72.5908 201.516 109.508 207.808 109.508 231.661C109.508 255.513 82.3595 254.974 82.3595 267.559V281.224C74.5086 281.224 74.5086 273.313 74.5086 267.559C74.5086 250.839 99.8593 244.126 99.8593 231.661C99.8593 219.195 60.5747 208.228 60.5747 181.679C60.5747 155.129 116.712 134.932 116.712 120.549C116.712 115.395 111.498 111.619 109.341 111.619H101.43Z" fill="white" stroke="white"/>
<path d="M4 59H65.4291C65.4291 69.9673 74.5986 78.058 77.715 78.5375V88.6059H45.8917C42.4756 88.6059 36.962 84.111 36.962 80.2155H27.433C22.8183 80.2155 19.0426 75.3012 19.0426 71.2259H12.9297C8.37495 71.2259 4 66.2516 4 62.8955V59Z" fill="white" stroke="white" stroke-width="7"/>
<path d="M174.983 59H113.554C113.554 69.9673 104.384 78.058 101.268 78.5375V88.6059H133.091C136.507 88.6059 142.021 84.111 142.021 80.2155H151.55C156.164 80.2155 159.94 75.3012 159.94 71.2259H166.053C170.608 71.2259 174.983 66.2516 174.983 62.8955V59Z" fill="white" stroke="white" stroke-width="7"/>
<path d="M529 274L504 259.566L504 288.434L529 274ZM395 274L395 276.5L506.5 276.5L506.5 274L506.5 271.5L395 271.5L395 274Z" fill="white"/>
<path d="M221 173L196 158.566L196 187.434L221 173ZM138 173L138 175.5L198.5 175.5L198.5 173L198.5 170.5L138 170.5L138 173Z" fill="white"/>
</g>
<defs>
<clipPath id="clip0_144_4">
<rect width="897" height="346" fill="white"/>
</clipPath>
</defs>
</svg>
