<svg width="897" height="346" viewBox="0 0 897 346" fill="none" xmlns="http://www.w3.org/2000/svg">
<g clip-path="url(#clip0_104_676)">
<path d="M279 339.687L337.024 306.187V239.187L279 205.687L220.976 239.187V306.187L279 339.687Z" stroke="#1B303D" stroke-width="9"/>
<path d="M226.927 218.25L232.03 218.088L244.619 239.893L241.927 244.231" stroke="#1B303D" stroke-width="5" stroke-linejoin="round"/>
<path d="M256.805 201L254.113 205.338L266.703 227.143L271.805 226.981" stroke="#1B303D" stroke-width="5" stroke-linejoin="round"/>
<path d="M322 289.687L324.411 285.187L349.589 285.187L352 289.687" stroke="#1B303D" stroke-width="5" stroke-linejoin="round"/>
<path d="M322 255.187L324.411 259.687L349.589 259.687L352 255.187" stroke="#1B303D" stroke-width="5" stroke-linejoin="round"/>
<path d="M337 106L278.976 139.5V206.5L337 240L395.024 206.5V139.5L337 106Z" stroke="#1B303D" stroke-width="9"/>
<path d="M389.073 227.437L383.97 227.599L371.381 205.794L374.073 201.456" stroke="#1B303D" stroke-width="5" stroke-linejoin="round"/>
<path d="M359.195 244.687L361.887 240.349L349.297 218.544L344.195 218.706" stroke="#1B303D" stroke-width="5" stroke-linejoin="round"/>
<path d="M294 156L291.589 160.5L266.411 160.5L264 156" stroke="#1B303D" stroke-width="5" stroke-linejoin="round"/>
<path d="M294 190.5L291.589 186L266.411 186L264 190.5" stroke="#1B303D" stroke-width="5" stroke-linejoin="round"/>
<path d="M279 6L337.024 39.5V106.5L279 140L220.976 106.5V39.5L279 6Z" stroke="#1B303D" stroke-width="9"/>
<path d="M226.927 127.437L232.03 127.599L244.619 105.794L241.927 101.456" stroke="#1B303D" stroke-width="5" stroke-linejoin="round"/>
<path d="M256.805 144.687L254.113 140.349L266.703 118.544L271.805 118.706" stroke="#1B303D" stroke-width="5" stroke-linejoin="round"/>
<path d="M206 56.0001L208.411 60.5001L233.589 60.5L236 56" stroke="#1B303D" stroke-width="5" stroke-linejoin="round"/>
<path d="M206 90.4999L208.411 85.9999L233.589 86L236 90.5" stroke="#1B303D" stroke-width="5" stroke-linejoin="round"/>
<path d="M221 106L279.024 139.5V206.5L221 240L162.976 206.5V139.5L221 106Z" stroke="#1B303D" stroke-width="9"/>
<path d="M227 126.981L232.103 127.143L244.692 105.338L242 101" stroke="#1B303D" stroke-width="5" stroke-linejoin="round"/>
<path d="M256.878 144.231L254.186 139.893L266.775 118.088L271.878 118.25" stroke="#1B303D" stroke-width="5" stroke-linejoin="round"/>
<path d="M242 245.231L244.692 240.893L232.102 219.088L227 219.25" stroke="#1B303D" stroke-width="5" stroke-linejoin="round"/>
<path d="M271.878 227.981L266.775 228.143L254.186 206.338L256.878 202" stroke="#1B303D" stroke-width="5" stroke-linejoin="round"/>
<path d="M148 156L150.411 160.5L175.589 160.5L178 156" stroke="#1B303D" stroke-width="5" stroke-linejoin="round"/>
<path d="M148 190.5L150.411 186L175.589 186L178 190.5" stroke="#1B303D" stroke-width="5" stroke-linejoin="round"/>
<path d="M264 156L266.411 160.5L291.589 160.5L294 156" stroke="#1B303D" stroke-width="5" stroke-linejoin="round"/>
<path d="M264 190.5L266.411 186L291.589 186L294 190.5" stroke="#1B303D" stroke-width="5" stroke-linejoin="round"/>
<path d="M336.83 305.835L336.83 238.835L394.854 205.335L452.877 238.835L452.877 305.835L394.854 339.335L336.83 305.835Z" stroke="#1B303D" stroke-width="9"/>
<path d="M352 290.149L349.589 285.649L324.411 285.649L322 290.149" stroke="#1B303D" stroke-width="5" stroke-linejoin="round"/>
<path d="M352 255.649L349.589 260.149L324.411 260.149L322 255.649" stroke="#1B303D" stroke-width="5" stroke-linejoin="round"/>
<path d="M468 291.5L465.589 287L440.411 287L438 291.5" stroke="#1B303D" stroke-width="5" stroke-linejoin="round"/>
<path d="M468 257L465.589 261.5L440.411 261.5L438 257" stroke="#1B303D" stroke-width="5" stroke-linejoin="round"/>
<path d="M358.631 243.596L361.323 239.258L348.734 217.453L343.631 217.615" stroke="#1B303D" stroke-width="5" stroke-linejoin="round"/>
<path d="M388.509 226.346L383.407 226.508L370.818 204.703L373.509 200.365" stroke="#1B303D" stroke-width="5" stroke-linejoin="round"/>
<path d="M389.126 39.8828H394.757L419.188 98.0986L443.664 39.8828H449.25L421.322 106H417.054L389.126 39.8828ZM387.401 39.8828H392.351L392.941 77.1191V106H387.401V39.8828ZM446.116 39.8828H451.066V106H445.48V77.1191L446.116 39.8828ZM508.964 101.232V106H471.773V101.232H508.964ZM473.453 39.8828V106H467.868V39.8828H473.453ZM504.332 69.5356V74.3037H471.773V69.5356H504.332ZM508.737 39.8828V44.6963H471.773V39.8828H508.737ZM538.889 106H523.904L523.995 101.232H538.889C543.642 101.232 547.729 100.172 551.15 98.0532C554.601 95.9038 557.265 92.937 559.142 89.1528C561.019 85.3687 561.958 80.979 561.958 75.9839V69.8081C561.958 65.9937 561.413 62.5425 560.323 59.4546C559.263 56.3667 557.734 53.7329 555.736 51.5532C553.738 49.3433 551.347 47.6479 548.562 46.4673C545.807 45.2866 542.719 44.6963 539.298 44.6963H523.631V39.8828H539.298C543.415 39.8828 547.184 40.5942 550.605 42.0171C554.056 43.4097 557.038 45.438 559.551 48.1021C562.094 50.7358 564.046 53.8994 565.409 57.5928C566.801 61.2861 567.498 65.4033 567.498 69.9443V75.9839C567.498 80.5249 566.801 84.6421 565.409 88.3354C564.046 92.0288 562.094 95.1924 559.551 97.8262C557.008 100.46 553.996 102.488 550.514 103.911C547.033 105.304 543.158 106 538.889 106ZM526.401 39.8828V106H520.816V39.8828H526.401ZM619.174 89.7432C619.174 87.9268 618.872 86.3071 618.266 84.8843C617.661 83.4614 616.662 82.1899 615.269 81.0698C613.907 79.9194 612.06 78.8599 609.729 77.8911C607.428 76.8921 604.552 75.9082 601.101 74.9395C597.801 74.001 594.819 72.9717 592.155 71.8516C589.491 70.7314 587.206 69.4448 585.298 67.9917C583.421 66.5386 581.983 64.8433 580.984 62.9058C579.985 60.938 579.486 58.6523 579.486 56.0488C579.486 53.5059 580.031 51.1899 581.121 49.1011C582.21 47.0122 583.739 45.2109 585.707 43.6973C587.705 42.1836 590.051 41.0181 592.746 40.2007C595.47 39.3833 598.452 38.9746 601.691 38.9746C606.323 38.9746 610.319 39.8525 613.68 41.6084C617.07 43.3643 619.689 45.7407 621.536 48.7378C623.413 51.7046 624.351 55.0347 624.351 58.728H618.766C618.766 55.8521 618.084 53.2939 616.722 51.0537C615.39 48.7832 613.453 47.0122 610.91 45.7407C608.397 44.439 605.324 43.7881 601.691 43.7881C598.059 43.7881 595.001 44.3481 592.519 45.4683C590.066 46.5581 588.205 48.0264 586.933 49.873C585.692 51.6895 585.071 53.7178 585.071 55.958C585.071 57.5322 585.374 58.9854 585.979 60.3174C586.585 61.6191 587.569 62.8452 588.931 63.9956C590.324 65.1157 592.155 66.1753 594.426 67.1743C596.696 68.1431 599.497 69.0664 602.827 69.9443C606.338 70.9131 609.457 71.9878 612.181 73.1685C614.906 74.3491 617.207 75.7114 619.083 77.2554C620.96 78.769 622.383 80.54 623.352 82.5684C624.321 84.5967 624.805 86.958 624.805 89.6523C624.805 92.3467 624.23 94.7686 623.08 96.918C621.959 99.0371 620.37 100.838 618.312 102.322C616.283 103.805 613.876 104.94 611.091 105.728C608.336 106.515 605.324 106.908 602.055 106.908C599.118 106.908 596.197 106.53 593.291 105.773C590.384 105.016 587.72 103.851 585.298 102.276C582.907 100.672 580.984 98.6133 579.531 96.1006C578.108 93.5879 577.397 90.5908 577.397 87.1094H582.937C582.937 89.8945 583.497 92.2407 584.617 94.1479C585.737 96.0552 587.221 97.5991 589.067 98.7798C590.944 99.9604 593.003 100.823 595.243 101.368C597.514 101.883 599.784 102.14 602.055 102.14C605.536 102.14 608.548 101.625 611.091 100.596C613.665 99.5669 615.647 98.1289 617.04 96.2822C618.463 94.4053 619.174 92.2256 619.174 89.7432ZM652.505 74.4854V79.1626H630.754V74.4854H652.505ZM453.155 131.883V198H447.615V131.883H453.155ZM475.814 131.883V136.696H425V131.883H475.814ZM487.258 156.995V198H481.854V148.866H487.122L487.258 156.995ZM504.65 148.503L504.514 153.498C503.908 153.407 503.318 153.332 502.743 153.271C502.167 153.21 501.547 153.18 500.881 153.18C498.52 153.18 496.446 153.619 494.66 154.497C492.904 155.345 491.42 156.541 490.209 158.084C488.999 159.598 488.075 161.384 487.439 163.443C486.804 165.471 486.44 167.651 486.35 169.982L484.352 170.754C484.352 167.545 484.685 164.563 485.351 161.808C486.017 159.053 487.031 156.646 488.393 154.588C489.786 152.499 491.526 150.879 493.615 149.729C495.734 148.548 498.217 147.958 501.062 147.958C501.759 147.958 502.44 148.019 503.106 148.14C503.802 148.23 504.317 148.352 504.65 148.503ZM541.25 189.19V163.852C541.25 161.521 540.766 159.507 539.797 157.812C538.829 156.117 537.406 154.815 535.529 153.907C533.652 152.999 531.336 152.544 528.581 152.544C526.038 152.544 523.768 152.999 521.77 153.907C519.802 154.785 518.243 155.98 517.092 157.494C515.972 158.978 515.412 160.627 515.412 162.444L509.963 162.398C509.963 160.552 510.417 158.766 511.325 157.04C512.233 155.314 513.52 153.771 515.185 152.408C516.85 151.046 518.833 149.971 521.134 149.184C523.465 148.367 526.023 147.958 528.808 147.958C532.32 147.958 535.408 148.548 538.072 149.729C540.766 150.91 542.87 152.681 544.384 155.042C545.897 157.403 546.654 160.37 546.654 163.942V187.692C546.654 189.387 546.775 191.143 547.018 192.959C547.29 194.776 547.668 196.274 548.153 197.455V198H542.386C542.022 196.91 541.735 195.548 541.523 193.913C541.341 192.248 541.25 190.674 541.25 189.19ZM542.522 169.392L542.613 173.569H531.941C529.156 173.569 526.659 173.827 524.449 174.341C522.269 174.826 520.422 175.552 518.909 176.521C517.395 177.459 516.229 178.595 515.412 179.927C514.625 181.259 514.231 182.772 514.231 184.468C514.231 186.224 514.67 187.828 515.548 189.281C516.457 190.734 517.728 191.9 519.363 192.778C521.028 193.625 522.996 194.049 525.266 194.049C528.293 194.049 530.958 193.489 533.258 192.369C535.589 191.249 537.512 189.781 539.025 187.964C540.539 186.148 541.553 184.165 542.068 182.016L544.429 185.149C544.036 186.663 543.309 188.222 542.25 189.826C541.22 191.4 539.873 192.884 538.208 194.276C536.543 195.639 534.575 196.759 532.305 197.637C530.064 198.484 527.521 198.908 524.676 198.908C521.467 198.908 518.667 198.303 516.275 197.092C513.914 195.881 512.067 194.231 510.735 192.142C509.433 190.023 508.782 187.631 508.782 184.967C508.782 182.545 509.297 180.381 510.326 178.474C511.355 176.536 512.839 174.901 514.776 173.569C516.744 172.207 519.105 171.178 521.86 170.481C524.646 169.755 527.764 169.392 531.215 169.392H542.522ZM566.635 159.356V198H561.231V148.866H566.408L566.635 159.356ZM565.409 170.391L563.002 169.028C563.184 166.122 563.774 163.397 564.773 160.854C565.772 158.312 567.119 156.071 568.814 154.134C570.54 152.196 572.553 150.683 574.854 149.593C577.185 148.503 579.758 147.958 582.574 147.958C585.026 147.958 587.221 148.291 589.158 148.957C591.096 149.623 592.746 150.683 594.108 152.136C595.47 153.589 596.5 155.451 597.196 157.721C597.922 159.992 598.286 162.762 598.286 166.031V198H592.836V165.986C592.836 162.595 592.367 159.946 591.429 158.039C590.49 156.102 589.158 154.724 587.433 153.907C585.707 153.089 583.664 152.681 581.302 152.681C578.699 152.681 576.413 153.256 574.445 154.406C572.508 155.526 570.873 156.995 569.541 158.811C568.239 160.597 567.24 162.52 566.544 164.578C565.848 166.606 565.469 168.544 565.409 170.391ZM641.789 185.467C641.789 184.135 641.456 182.818 640.79 181.516C640.124 180.214 638.837 179.019 636.93 177.929C635.053 176.839 632.283 175.916 628.62 175.159C625.895 174.553 623.458 173.872 621.309 173.115C619.189 172.358 617.403 171.45 615.95 170.391C614.497 169.331 613.392 168.06 612.635 166.576C611.878 165.093 611.5 163.337 611.5 161.309C611.5 159.492 611.894 157.782 612.681 156.177C613.498 154.542 614.648 153.12 616.132 151.909C617.646 150.667 619.462 149.699 621.581 149.002C623.73 148.306 626.137 147.958 628.801 147.958C632.585 147.958 635.825 148.609 638.519 149.911C641.244 151.182 643.317 152.923 644.74 155.133C646.193 157.343 646.92 159.84 646.92 162.625H641.516C641.516 160.93 641.017 159.326 640.018 157.812C639.049 156.298 637.611 155.057 635.704 154.088C633.827 153.12 631.526 152.635 628.801 152.635C625.986 152.635 623.7 153.059 621.944 153.907C620.188 154.754 618.902 155.829 618.084 157.131C617.297 158.433 616.904 159.78 616.904 161.172C616.904 162.262 617.07 163.261 617.403 164.169C617.767 165.047 618.402 165.865 619.311 166.622C620.249 167.378 621.581 168.09 623.307 168.756C625.032 169.422 627.272 170.073 630.027 170.708C633.993 171.586 637.232 172.661 639.745 173.933C642.288 175.174 644.165 176.718 645.376 178.564C646.587 180.381 647.192 182.591 647.192 185.194C647.192 187.223 646.769 189.084 645.921 190.78C645.073 192.445 643.847 193.883 642.243 195.094C640.668 196.305 638.761 197.243 636.521 197.909C634.311 198.575 631.829 198.908 629.074 198.908C624.926 198.908 621.415 198.227 618.539 196.865C615.693 195.472 613.528 193.656 612.045 191.416C610.592 189.145 609.865 186.738 609.865 184.195H615.269C615.451 186.738 616.253 188.751 617.676 190.235C619.099 191.688 620.839 192.717 622.898 193.323C624.987 193.928 627.045 194.231 629.074 194.231C631.859 194.231 634.19 193.822 636.067 193.005C637.944 192.188 639.367 191.113 640.335 189.781C641.304 188.449 641.789 187.011 641.789 185.467ZM668.808 198H663.404V142.781C663.404 139.421 663.979 136.59 665.129 134.29C666.31 131.989 667.975 130.248 670.125 129.067C672.304 127.887 674.893 127.296 677.89 127.296C678.828 127.296 679.797 127.357 680.796 127.478C681.795 127.569 682.764 127.766 683.702 128.068L683.293 132.655C682.537 132.443 681.765 132.307 680.978 132.246C680.221 132.155 679.328 132.11 678.298 132.11C676.331 132.11 674.635 132.534 673.212 133.381C671.79 134.199 670.7 135.395 669.943 136.969C669.186 138.543 668.808 140.48 668.808 142.781V198ZM680.523 148.866V153.316H655.275V148.866H680.523ZM687.29 174.205V172.707C687.29 169.134 687.804 165.834 688.833 162.807C689.863 159.78 691.331 157.161 693.238 154.951C695.176 152.741 697.492 151.031 700.186 149.82C702.88 148.579 705.877 147.958 709.177 147.958C712.507 147.958 715.52 148.579 718.214 149.82C720.908 151.031 723.224 152.741 725.162 154.951C727.099 157.161 728.583 159.78 729.612 162.807C730.641 165.834 731.156 169.134 731.156 172.707V174.205C731.156 177.777 730.641 181.077 729.612 184.104C728.583 187.102 727.099 189.705 725.162 191.915C723.254 194.125 720.954 195.851 718.259 197.092C715.565 198.303 712.568 198.908 709.268 198.908C705.938 198.908 702.926 198.303 700.231 197.092C697.537 195.851 695.221 194.125 693.284 191.915C691.346 189.705 689.863 187.102 688.833 184.104C687.804 181.077 687.29 177.777 687.29 174.205ZM692.693 172.707V174.205C692.693 176.899 693.057 179.458 693.783 181.879C694.51 184.271 695.569 186.405 696.962 188.282C698.354 190.129 700.08 191.582 702.139 192.642C704.197 193.701 706.574 194.231 709.268 194.231C711.932 194.231 714.278 193.701 716.307 192.642C718.365 191.582 720.091 190.129 721.483 188.282C722.876 186.405 723.92 184.271 724.617 181.879C725.343 179.458 725.707 176.899 725.707 174.205V172.707C725.707 170.042 725.343 167.515 724.617 165.123C723.92 162.731 722.861 160.597 721.438 158.72C720.045 156.843 718.32 155.36 716.261 154.27C714.203 153.18 711.841 152.635 709.177 152.635C706.513 152.635 704.152 153.18 702.093 154.27C700.065 155.36 698.339 156.843 696.917 158.72C695.524 160.597 694.464 162.731 693.738 165.123C693.042 167.515 692.693 170.042 692.693 172.707ZM747.821 156.995V198H742.417V148.866H747.685L747.821 156.995ZM765.213 148.503L765.077 153.498C764.472 153.407 763.881 153.332 763.306 153.271C762.731 153.21 762.11 153.18 761.444 153.18C759.083 153.18 757.009 153.619 755.223 154.497C753.467 155.345 751.984 156.541 750.773 158.084C749.562 159.598 748.639 161.384 748.003 163.443C747.367 165.471 747.004 167.651 746.913 169.982L744.915 170.754C744.915 167.545 745.248 164.563 745.914 161.808C746.58 159.053 747.594 156.646 748.957 154.588C750.349 152.499 752.09 150.879 754.179 149.729C756.298 148.548 758.78 147.958 761.626 147.958C762.322 147.958 763.003 148.019 763.669 148.14C764.366 148.23 764.88 148.352 765.213 148.503ZM778.882 159.038V198H773.433V148.866H778.655L778.882 159.038ZM777.883 170.391L775.249 169.028C775.431 166.122 775.976 163.397 776.884 160.854C777.822 158.312 779.124 156.071 780.789 154.134C782.454 152.196 784.452 150.683 786.783 149.593C789.114 148.503 791.763 147.958 794.73 147.958C797.122 147.958 799.286 148.291 801.224 148.957C803.191 149.593 804.856 150.607 806.219 152C807.611 153.362 808.686 155.148 809.443 157.358C810.2 159.568 810.578 162.217 810.578 165.305V198H805.174V165.486C805.174 162.217 804.66 159.659 803.63 157.812C802.631 155.965 801.224 154.648 799.407 153.861C797.621 153.074 795.547 152.681 793.186 152.681C790.401 152.681 788.04 153.256 786.102 154.406C784.195 155.526 782.636 156.995 781.425 158.811C780.244 160.597 779.366 162.52 778.791 164.578C778.216 166.606 777.913 168.544 777.883 170.391ZM810.533 166.122L806.9 166.213C807.051 163.821 807.596 161.536 808.535 159.356C809.503 157.176 810.82 155.239 812.485 153.543C814.15 151.818 816.133 150.456 818.434 149.457C820.765 148.458 823.384 147.958 826.29 147.958C828.833 147.958 831.104 148.306 833.102 149.002C835.1 149.668 836.78 150.743 838.142 152.227C839.535 153.68 840.594 155.542 841.321 157.812C842.047 160.083 842.411 162.807 842.411 165.986V198H836.961V165.94C836.961 162.459 836.447 159.765 835.417 157.857C834.418 155.92 833.026 154.573 831.24 153.816C829.454 153.059 827.365 152.681 824.973 152.681C822.612 152.711 820.538 153.15 818.752 153.998C816.966 154.815 815.467 155.905 814.256 157.267C813.076 158.599 812.167 160.037 811.532 161.581C810.926 163.125 810.593 164.639 810.533 166.122ZM885.641 185.467C885.641 184.135 885.308 182.818 884.642 181.516C883.976 180.214 882.689 179.019 880.782 177.929C878.905 176.839 876.135 175.916 872.472 175.159C869.748 174.553 867.311 173.872 865.161 173.115C863.042 172.358 861.256 171.45 859.803 170.391C858.35 169.331 857.245 168.06 856.488 166.576C855.731 165.093 855.353 163.337 855.353 161.309C855.353 159.492 855.746 157.782 856.533 156.177C857.351 154.542 858.501 153.12 859.984 151.909C861.498 150.667 863.314 149.699 865.434 149.002C867.583 148.306 869.99 147.958 872.654 147.958C876.438 147.958 879.677 148.609 882.372 149.911C885.096 151.182 887.17 152.923 888.593 155.133C890.046 157.343 890.772 159.84 890.772 162.625H885.369C885.369 160.93 884.869 159.326 883.87 157.812C882.901 156.298 881.463 155.057 879.556 154.088C877.679 153.12 875.378 152.635 872.654 152.635C869.838 152.635 867.553 153.059 865.797 153.907C864.041 154.754 862.754 155.829 861.937 157.131C861.15 158.433 860.756 159.78 860.756 161.172C860.756 162.262 860.923 163.261 861.256 164.169C861.619 165.047 862.255 165.865 863.163 166.622C864.102 167.378 865.434 168.09 867.159 168.756C868.885 169.422 871.125 170.073 873.88 170.708C877.846 171.586 881.085 172.661 883.598 173.933C886.141 175.174 888.018 176.718 889.229 178.564C890.439 180.381 891.045 182.591 891.045 185.194C891.045 187.223 890.621 189.084 889.773 190.78C888.926 192.445 887.7 193.883 886.095 195.094C884.521 196.305 882.614 197.243 880.374 197.909C878.164 198.575 875.681 198.908 872.926 198.908C868.779 198.908 865.267 198.227 862.391 196.865C859.545 195.472 857.381 193.656 855.897 191.416C854.444 189.145 853.718 186.738 853.718 184.195H859.122C859.303 186.738 860.105 188.751 861.528 190.235C862.951 191.688 864.692 192.717 866.75 193.323C868.839 193.928 870.898 194.231 872.926 194.231C875.711 194.231 878.042 193.822 879.919 193.005C881.796 192.188 883.219 191.113 884.188 189.781C885.157 188.449 885.641 187.011 885.641 185.467Z" fill="#1B303D"/>
<circle cx="556" cy="238" r="12" fill="#1B303D"/>
<circle cx="556" cy="274" r="12" fill="#1B303D"/>
<circle cx="556" cy="310" r="12" fill="#1B303D"/>
<circle cx="630" cy="238" r="12" fill="#1B303D"/>
<circle cx="630" cy="274" r="12" fill="#1B303D"/>
<circle cx="630" cy="310" r="12" fill="#1B303D"/>
<circle cx="593" cy="292" r="12" fill="#1B303D"/>
<circle cx="593" cy="256" r="12" fill="#1B303D"/>
<line x1="556.228" y1="237.555" x2="593.228" y2="256.555" stroke="#1B303D"/>
<line x1="556.412" y1="237.717" x2="593.412" y2="291.717" stroke="#1B303D"/>
<line x1="556.219" y1="273.55" x2="593.219" y2="291.55" stroke="#1B303D"/>
<line x1="555.781" y1="309.55" x2="592.781" y2="291.55" stroke="#1B303D"/>
<line x1="629.781" y1="310.45" x2="592.781" y2="292.45" stroke="#1B303D"/>
<line x1="630.219" y1="274.45" x2="593.219" y2="292.45" stroke="#1B303D"/>
<line x1="630.412" y1="238.283" x2="593.412" y2="292.283" stroke="#1B303D"/>
<line x1="630.219" y1="238.45" x2="593.219" y2="256.45" stroke="#1B303D"/>
<line x1="629.781" y1="274.45" x2="592.781" y2="256.45" stroke="#1B303D"/>
<line x1="629.588" y1="310.283" x2="592.588" y2="256.283" stroke="#1B303D"/>
<line x1="555.588" y1="309.717" x2="592.588" y2="255.717" stroke="#1B303D"/>
<line x1="555.781" y1="273.55" x2="592.781" y2="255.55" stroke="#1B303D"/>
<circle cx="89.5211" cy="66.8509" r="9.35094" stroke="#1B303D" stroke-width="3"/>
<path d="M93.4641 73.8047C93.4604 74.2983 93.4549 74.9535 93.4485 75.8223C93.4223 79.3508 93.3698 86.4075 93.2649 100.521L91.7971 298.113V298.124C91.7971 298.468 91.5668 299.095 91.0227 299.679C90.4873 300.254 89.8986 300.52 89.4612 300.52L89.2913 300.507C88.8796 300.448 88.3731 300.183 87.9055 299.68C87.4312 299.169 87.1921 298.623 87.1379 298.258L87.1252 298.113C87.122 297.672 87.1187 297.232 87.1155 296.793C87.1122 296.354 87.109 295.915 87.1057 295.478C87.1025 295.04 87.0992 294.603 87.0959 294.167C87.0927 293.731 87.0894 293.296 87.0862 292.861C87.083 292.427 87.0796 291.994 87.0764 291.562C87.0732 291.129 87.0708 290.697 87.0676 290.267C87.0644 289.836 87.061 289.406 87.0579 288.977C87.0547 288.548 87.0513 288.12 87.0481 287.692C87.0449 287.265 87.0415 286.839 87.0383 286.413C87.0352 285.988 87.0327 285.563 87.0295 285.139C87.0264 284.715 87.0229 284.291 87.0198 283.869C87.0166 283.447 87.0131 283.025 87.01 282.604C87.0069 282.184 87.0043 281.764 87.0012 281.345C86.9981 280.926 86.9946 280.508 86.9915 280.091C86.9884 279.674 86.9858 279.257 86.9827 278.842C86.9796 278.426 86.976 278.011 86.9729 277.598C86.9698 277.184 86.9672 276.77 86.9641 276.358C86.961 275.946 86.9574 275.534 86.9543 275.124C86.9513 274.713 86.9486 274.303 86.9456 273.895C86.9425 273.486 86.9398 273.077 86.9368 272.67C86.9337 272.263 86.93 271.857 86.927 271.451C86.924 271.046 86.9212 270.64 86.9182 270.236C86.9152 269.833 86.9124 269.43 86.9094 269.027C86.9064 268.625 86.9036 268.223 86.9006 267.822C86.8977 267.422 86.8948 267.022 86.8918 266.623C86.8889 266.224 86.886 265.826 86.8831 265.429C86.8801 265.031 86.8772 264.634 86.8743 264.238C86.8713 263.843 86.8684 263.448 86.8655 263.054C86.8626 262.66 86.8596 262.266 86.8567 261.874C86.8538 261.482 86.8508 261.089 86.8479 260.698C86.845 260.308 86.842 259.917 86.8391 259.528C86.8362 259.139 86.8332 258.751 86.8303 258.363C86.8274 257.976 86.8244 257.588 86.8215 257.202C86.8187 256.816 86.8156 256.431 86.8127 256.047C86.8099 255.663 86.8068 255.279 86.804 254.896C86.8011 254.514 86.799 254.131 86.7961 253.75C86.7933 253.369 86.7902 252.988 86.7874 252.608C86.7845 252.229 86.7814 251.85 86.7786 251.473C86.7758 251.095 86.7735 250.717 86.7708 250.341C86.768 249.964 86.7647 249.589 86.762 249.214C86.7592 248.839 86.7569 248.465 86.7542 248.092C86.7514 247.719 86.7481 247.346 86.7454 246.975C86.7426 246.603 86.7403 246.231 86.7375 245.861C86.7348 245.491 86.7315 245.122 86.7288 244.754C86.726 244.385 86.7237 244.017 86.7209 243.65C86.7182 243.284 86.7158 242.918 86.7131 242.553C86.7104 242.188 86.707 241.823 86.7043 241.459C86.7016 241.095 86.6992 240.731 86.6965 240.369C86.6938 240.007 86.6914 239.646 86.6887 239.285C86.686 238.924 86.6826 238.564 86.6799 238.205C86.6773 237.846 86.6748 237.488 86.6721 237.131C86.6695 236.773 86.667 236.416 86.6643 236.061C86.6617 235.705 86.6591 235.349 86.6565 234.994C86.6539 234.64 86.6513 234.286 86.6487 233.934C86.6461 233.581 86.6435 233.228 86.6409 232.877C86.6383 232.526 86.6357 232.175 86.6331 231.825C86.6305 231.475 86.6278 231.126 86.6252 230.777C86.6227 230.429 86.62 230.082 86.6174 229.735C86.6149 229.389 86.6122 229.042 86.6096 228.697C86.6071 228.352 86.6044 228.007 86.6018 227.663C86.5993 227.32 86.5965 226.977 86.594 226.635C86.5915 226.293 86.5897 225.951 86.5872 225.61C86.5846 225.27 86.5819 224.929 86.5793 224.59C86.5768 224.251 86.574 223.913 86.5715 223.575C86.569 223.238 86.5662 222.901 86.5637 222.564C86.5612 222.228 86.5594 221.892 86.5569 221.558C86.5544 221.223 86.5515 220.89 86.5491 220.557C86.5466 220.223 86.5447 219.89 86.5422 219.559C86.5398 219.227 86.5369 218.896 86.5344 218.566C86.532 218.236 86.5291 217.907 86.5266 217.578C86.5242 217.249 86.5222 216.921 86.5198 216.594C86.5173 216.267 86.5154 215.94 86.5129 215.614C86.5105 215.289 86.5075 214.964 86.5051 214.64C86.5027 214.315 86.5007 213.992 86.4983 213.669C86.4959 213.346 86.4929 213.024 86.4905 212.703C86.4881 212.382 86.486 212.061 86.4836 211.741C86.4813 211.421 86.4792 211.102 86.4768 210.784C86.4744 210.466 86.4723 210.148 86.47 209.831C86.4676 209.514 86.4645 209.198 86.4622 208.883C86.4598 208.567 86.4577 208.252 86.4553 207.938C86.453 207.624 86.4508 207.311 86.4485 206.998C86.4462 206.686 86.444 206.374 86.4417 206.063C86.4393 205.752 86.4371 205.441 86.4348 205.132C86.4325 204.822 86.4303 204.513 86.428 204.205C86.4257 203.897 86.4234 203.589 86.4211 203.282C86.4189 202.976 86.4166 202.669 86.4143 202.364C86.412 202.059 86.4097 201.755 86.4075 201.451C86.4052 201.147 86.4029 200.843 86.4006 200.541C86.3984 200.239 86.396 199.937 86.3938 199.636C86.3916 199.335 86.3892 199.034 86.387 198.734C86.3847 198.435 86.3823 198.136 86.3801 197.838C86.3779 197.54 86.3755 197.242 86.3733 196.945C86.3711 196.649 86.3696 196.353 86.3674 196.058C86.3652 195.762 86.3628 195.468 86.3606 195.174C86.3584 194.88 86.3559 194.586 86.3538 194.294C86.3516 194.001 86.3501 193.709 86.3479 193.418C86.3457 193.127 86.3432 192.837 86.3411 192.547C86.3389 192.257 86.3364 191.968 86.3342 191.68C86.3321 191.391 86.3305 191.103 86.3284 190.816C86.3262 190.529 86.3237 190.243 86.3215 189.957C86.3194 189.672 86.3178 189.387 86.3157 189.103C86.3136 188.818 86.3109 188.535 86.3088 188.252C86.3067 187.969 86.3051 187.687 86.303 187.406C86.3009 187.125 86.2982 186.844 86.2961 186.563C86.2941 186.283 86.2924 186.004 86.2903 185.726C86.2882 185.447 86.2865 185.169 86.2844 184.892C86.2824 184.614 86.2796 184.337 86.2776 184.062C86.2755 183.786 86.2738 183.51 86.2717 183.235C86.2697 182.961 86.2679 182.687 86.2659 182.414C86.2638 182.141 86.262 181.868 86.26 181.596C86.258 181.324 86.2552 181.053 86.2532 180.782C86.2512 180.512 86.2493 180.242 86.2473 179.973C86.2453 179.703 86.2434 179.435 86.2415 179.167C86.2395 178.899 86.2376 178.632 86.2356 178.365C86.2336 178.099 86.2317 177.833 86.2297 177.568C86.2278 177.303 86.2258 177.038 86.2239 176.774C86.2219 176.511 86.22 176.248 86.218 175.985C86.2161 175.723 86.2141 175.46 86.2122 175.199C86.2102 174.938 86.2082 174.678 86.2063 174.418C86.2044 174.158 86.2024 173.899 86.2004 173.641C86.1985 173.382 86.1965 173.123 86.1946 172.866C86.1927 172.609 86.1906 172.352 86.1887 172.097C86.1868 171.841 86.1857 171.586 86.1838 171.331C86.1819 171.077 86.1799 170.823 86.178 170.569C86.1761 170.316 86.174 170.063 86.1721 169.812C86.1702 169.56 86.1681 169.308 86.1663 169.058C86.1644 168.807 86.1632 168.557 86.1614 168.308C86.1595 168.058 86.1574 167.809 86.1555 167.562C86.1537 167.313 86.1515 167.065 86.1497 166.818C86.1478 166.572 86.1466 166.325 86.1448 166.08C86.143 165.835 86.1407 165.59 86.1389 165.346C86.1371 165.102 86.1349 164.858 86.1331 164.615C86.1313 164.372 86.13 164.129 86.1282 163.888C86.1264 163.646 86.1241 163.405 86.1223 163.165C86.1205 162.925 86.1192 162.684 86.1174 162.445C86.1157 162.206 86.1143 161.968 86.1125 161.73C86.1108 161.493 86.1084 161.255 86.1067 161.019C86.1049 160.782 86.1036 160.546 86.1018 160.311C86.1001 160.075 86.0977 159.841 86.0959 159.606C86.0942 159.372 86.0928 159.139 86.0911 158.906C86.0893 158.673 86.0879 158.441 86.0862 158.209C86.0845 157.978 86.082 157.747 86.0803 157.517C86.0786 157.286 86.0771 157.056 86.0754 156.827C86.0737 156.598 86.0722 156.369 86.0706 156.142C86.0689 155.914 86.0674 155.686 86.0657 155.46C86.064 155.233 86.0625 155.007 86.0608 154.782C86.0591 154.557 86.0576 154.332 86.0559 154.108C86.0542 153.884 86.0517 153.66 86.05 153.438C86.0484 153.215 86.0468 152.992 86.0452 152.771C86.0435 152.549 86.0419 152.328 86.0403 152.107C86.0386 151.887 86.037 151.667 86.0354 151.447C86.0338 151.228 86.0321 151.01 86.0305 150.792C86.0289 150.574 86.0272 150.356 86.0256 150.14C86.024 149.923 86.0224 149.706 86.0208 149.49C86.0192 149.275 86.0175 149.06 86.0159 148.846C86.0143 148.631 86.0135 148.417 86.012 148.204C86.0104 147.991 86.0087 147.778 86.0071 147.566C86.0055 147.354 86.0038 147.142 86.0022 146.932C86.0006 146.721 85.9989 146.51 85.9973 146.301C85.9958 146.091 85.994 145.882 85.9924 145.674C85.9909 145.465 85.9901 145.257 85.9885 145.05C85.987 144.843 85.9852 144.636 85.9836 144.43C85.9821 144.224 85.9803 144.018 85.9788 143.813C85.9772 143.609 85.9764 143.404 85.9749 143.2C85.9733 142.997 85.9715 142.793 85.97 142.591C85.9685 142.388 85.9666 142.187 85.9651 141.985C85.9636 141.784 85.9627 141.583 85.9612 141.383C85.9597 141.183 85.9578 140.982 85.9563 140.783C85.9548 140.584 85.9539 140.385 85.9524 140.188C85.9509 139.99 85.949 139.792 85.9475 139.596C85.946 139.399 85.9451 139.202 85.9436 139.007C85.9422 138.811 85.9402 138.616 85.9387 138.422C85.9373 138.227 85.9363 138.033 85.9348 137.84C85.9334 137.647 85.9314 137.454 85.9299 137.262C85.9285 137.07 85.9274 136.878 85.926 136.687C85.9246 136.496 85.9235 136.305 85.9221 136.115C85.9207 135.925 85.9186 135.736 85.9172 135.547C85.9158 135.358 85.9147 135.17 85.9133 134.982C85.9119 134.795 85.9108 134.607 85.9094 134.421C85.908 134.234 85.9059 134.049 85.9045 133.863C85.9032 133.678 85.902 133.493 85.9006 133.309C85.8993 133.124 85.8981 132.94 85.8967 132.757C85.8954 132.574 85.8942 132.391 85.8928 132.209C85.8915 132.027 85.8903 131.845 85.8889 131.664C85.8876 131.483 85.8863 131.303 85.885 131.123C85.8837 130.943 85.8824 130.764 85.8811 130.585C85.8798 130.406 85.8775 130.228 85.8762 130.05C85.8749 129.872 85.8736 129.695 85.8723 129.519C85.871 129.342 85.8697 129.166 85.8684 128.99C85.8671 128.815 85.8658 128.64 85.8645 128.466C85.8632 128.291 85.8619 128.117 85.8606 127.943C85.8593 127.77 85.858 127.597 85.8567 127.425C85.8554 127.253 85.855 127.081 85.8538 126.91C85.8525 126.739 85.8511 126.568 85.8499 126.398C85.8486 126.228 85.8472 126.059 85.8459 125.89C85.8447 125.721 85.8433 125.552 85.842 125.384C85.8408 125.216 85.8394 125.048 85.8381 124.881C85.8369 124.714 85.8355 124.548 85.8342 124.382C85.833 124.216 85.8325 124.051 85.8313 123.886C85.8301 123.721 85.8286 123.556 85.8274 123.393C85.8262 123.229 85.8247 123.066 85.8235 122.903C85.8223 122.741 85.8208 122.579 85.8196 122.417C85.8184 122.255 85.8178 122.093 85.8167 121.933C85.8155 121.772 85.8139 121.612 85.8127 121.452C85.8116 121.293 85.81 121.134 85.8088 120.976C85.8077 120.817 85.8071 120.659 85.8059 120.501C85.8047 120.344 85.8032 120.187 85.802 120.03C85.8008 119.874 85.8002 119.718 85.7991 119.562C85.7979 119.407 85.7963 119.252 85.7952 119.098C85.794 118.943 85.7934 118.789 85.7922 118.636C85.7911 118.482 85.7895 118.329 85.7883 118.177C85.7872 118.024 85.7865 117.872 85.7854 117.721C85.7843 117.569 85.7826 117.418 85.7815 117.268C85.7804 117.117 85.7797 116.968 85.7786 116.818C85.7775 116.669 85.7758 116.52 85.7747 116.371C85.7736 116.223 85.7728 116.075 85.7717 115.928C85.7706 115.78 85.7699 115.634 85.7688 115.487C85.7677 115.341 85.766 115.194 85.7649 115.049C85.7638 114.904 85.763 114.759 85.762 114.614C85.7609 114.47 85.7601 114.326 85.759 114.183C85.758 114.039 85.7562 113.896 85.7551 113.754C85.7541 113.612 85.7532 113.469 85.7522 113.328C85.7511 113.187 85.7503 113.045 85.7493 112.904C85.7482 112.764 85.7474 112.624 85.7463 112.484C85.7453 112.345 85.7444 112.206 85.7434 112.067C85.7424 111.929 85.7405 111.791 85.7395 111.653C85.7385 111.516 85.7376 111.378 85.7366 111.241C85.7356 111.105 85.7346 110.969 85.7336 110.833C85.7326 110.697 85.7317 110.562 85.7307 110.428C85.7297 110.293 85.7288 110.158 85.7278 110.024C85.7268 109.891 85.7258 109.758 85.7249 109.625C85.7239 109.492 85.7229 109.359 85.7219 109.228C85.7209 109.096 85.72 108.964 85.719 108.833C85.718 108.702 85.717 108.571 85.7161 108.441C85.7151 108.311 85.7141 108.182 85.7131 108.053C85.7122 107.924 85.7112 107.795 85.7102 107.667C85.7093 107.539 85.7082 107.411 85.7073 107.284C85.7063 107.157 85.7053 107.03 85.7043 106.903C85.7034 106.777 85.7023 106.652 85.7014 106.526C85.7005 106.401 85.7004 106.276 85.6995 106.151C85.6985 106.027 85.6975 105.903 85.6965 105.779C85.6956 105.656 85.6945 105.533 85.6936 105.41C85.6927 105.288 85.6916 105.165 85.6907 105.043C85.6898 104.921 85.6886 104.8 85.6877 104.68C85.6868 104.559 85.6867 104.438 85.6858 104.318C85.6849 104.198 85.6837 104.079 85.6829 103.96C85.682 103.841 85.6808 103.722 85.6799 103.604C85.6791 103.486 85.6788 103.368 85.678 103.251C85.6771 103.134 85.6759 103.017 85.675 102.9C85.6742 102.784 85.673 102.668 85.6721 102.553C85.6713 102.437 85.671 102.322 85.6702 102.207C85.6693 102.093 85.6681 101.979 85.6672 101.865C85.663 101.296 85.6616 101.076 85.6575 100.521C85.6567 100.41 85.6554 100.301 85.6545 100.191C85.6537 100.082 85.6534 99.9728 85.6526 99.8643C85.6518 99.7558 85.6505 99.6476 85.6497 99.54C85.6489 99.4325 85.6485 99.3254 85.6477 99.2188C85.6469 99.112 85.6456 99.0053 85.6448 98.8994C85.644 98.7934 85.6436 98.6872 85.6428 98.582C85.642 98.4771 85.6416 98.3726 85.6409 98.2686C85.6401 98.1642 85.6387 98.0595 85.6379 97.9561C85.6372 97.8528 85.6367 97.7499 85.636 97.6475C85.6352 97.5449 85.6348 97.4426 85.634 97.3408C85.6333 97.239 85.6319 97.1371 85.6311 97.0361C85.6304 96.9352 85.6299 96.8345 85.6292 96.7344C85.6284 96.6344 85.6279 96.5347 85.6272 96.4355C85.6265 96.3362 85.625 96.2372 85.6243 96.1387C85.6235 96.0401 85.623 95.9415 85.6223 95.8438C85.6216 95.7462 85.6211 95.6485 85.6204 95.5518C85.6196 95.455 85.6191 95.3586 85.6184 95.2627C85.6177 95.1666 85.6172 95.0709 85.6165 94.9756C85.6157 94.8803 85.6142 94.7849 85.6135 94.6904C85.6128 94.5961 85.6123 94.5018 85.6116 94.4082C85.6109 94.3147 85.6103 94.2216 85.6096 94.1289C85.6089 94.0362 85.6083 93.9435 85.6077 93.8516C85.607 93.7595 85.6064 93.6674 85.6057 93.5762C85.605 93.4848 85.6044 93.3933 85.6038 93.3027C85.6031 93.2123 85.6025 93.1219 85.6018 93.0322C85.6011 92.9426 85.6005 92.8535 85.5999 92.7646C85.5992 92.6756 85.5986 92.5863 85.5979 92.498C85.5972 92.4101 85.5966 92.3225 85.5959 92.2354C85.5953 92.1479 85.5946 92.0603 85.594 91.9736C85.5934 91.887 85.5927 91.8007 85.592 91.7148C85.5914 91.6289 85.5907 91.5432 85.5901 91.458C85.5895 91.373 85.5888 91.2884 85.5881 91.2041C85.5875 91.1197 85.5868 91.0348 85.5862 90.9512C85.5856 90.8678 85.5848 90.7848 85.5842 90.7021C85.5836 90.6192 85.5829 90.5363 85.5823 90.4541C85.5817 90.372 85.5809 90.2903 85.5803 90.209C85.5797 90.1277 85.579 90.0464 85.5784 89.9658C85.5778 89.8852 85.578 89.8045 85.5774 89.7246C85.5768 89.6447 85.576 89.5646 85.5754 89.4854C85.5749 89.4062 85.5741 89.3274 85.5735 89.249C85.5729 89.1706 85.5721 89.0924 85.5715 89.0146C85.571 88.9369 85.5702 88.8593 85.5696 88.7822C85.569 88.7054 85.5692 88.6289 85.5686 88.5527C85.568 88.4764 85.5672 88.3998 85.5667 88.3242C85.5661 88.2487 85.5653 88.1734 85.5647 88.0986C85.5641 88.0238 85.5643 87.9492 85.5637 87.875C85.5632 87.8008 85.5623 87.7268 85.5618 87.6533C85.5612 87.5801 85.5604 87.5071 85.5598 87.4346C85.5593 87.3618 85.5594 87.2889 85.5588 87.2168C85.5583 87.1448 85.5574 87.0732 85.5569 87.002C85.5564 86.9306 85.5555 86.8588 85.5549 86.7881C85.5544 86.7175 85.5545 86.6471 85.554 86.5771C85.5534 86.5072 85.5525 86.4375 85.552 86.3682C85.5515 86.2989 85.5506 86.2298 85.55 86.1611C85.5495 86.0925 85.5496 86.024 85.5491 85.9561C85.5486 85.8883 85.5476 85.821 85.5471 85.7539C85.5466 85.6867 85.5466 85.6193 85.5461 85.5527C85.5456 85.4861 85.5447 85.4195 85.5442 85.3535C85.5437 85.2878 85.5437 85.2223 85.5432 85.1572C85.5427 85.0919 85.5417 85.0265 85.5413 84.9619C85.5408 84.8973 85.5408 84.8325 85.5403 84.7686C85.5398 84.7048 85.5388 84.6413 85.5383 84.5781C85.5379 84.5148 85.5378 84.4513 85.5374 84.3887C85.5369 84.3262 85.5368 84.264 85.5364 84.2021C85.5359 84.1401 85.5349 84.078 85.5344 84.0166C85.534 83.9554 85.5339 83.8945 85.5334 83.834C85.533 83.7732 85.5319 83.7124 85.5315 83.6523C85.531 83.5923 85.531 83.5321 85.5305 83.4727C85.5301 83.4134 85.53 83.3545 85.5295 83.2959C85.5291 83.2371 85.528 83.1783 85.5276 83.1201C85.5272 83.0619 85.527 83.0039 85.5266 82.9463C85.5262 82.8887 85.5261 82.8313 85.5256 82.7744C85.5252 82.7175 85.5241 82.6608 85.5237 82.6045C85.5233 82.5482 85.5231 82.4922 85.5227 82.4365C85.5223 82.3809 85.5221 82.3255 85.5217 82.2705C85.5213 82.2154 85.5212 82.16 85.5208 82.1055C85.5203 82.0511 85.5192 81.9971 85.5188 81.9434C85.5184 81.8895 85.5182 81.8355 85.5178 81.7822C85.5174 81.729 85.5172 81.6757 85.5168 81.623C85.5165 81.5704 85.5163 81.5178 85.5159 81.4658C85.5155 81.4138 85.5153 81.362 85.5149 81.3105C85.5145 81.2591 85.5133 81.208 85.5129 81.1572C85.5126 81.1063 85.5123 81.0552 85.512 81.0049C85.5116 80.9546 85.5114 80.9042 85.511 80.8545C85.5106 80.8048 85.5104 80.7552 85.51 80.7061C85.5096 80.6569 85.5094 80.6081 85.509 80.5596C85.5087 80.5111 85.5084 80.4629 85.5081 80.415C85.5077 80.3671 85.5074 80.3189 85.5071 80.2715C85.5067 80.2241 85.5065 80.1767 85.5061 80.1299C85.5058 80.083 85.5055 80.0356 85.5051 79.9893C85.5048 79.9431 85.5035 79.8972 85.5032 79.8516C85.5028 79.8058 85.5025 79.7601 85.5022 79.7148C85.5019 79.6696 85.5016 79.6247 85.5012 79.5801C85.5009 79.5354 85.5006 79.4904 85.5002 79.4463L85.4983 79.1846C85.498 79.1417 85.4976 79.099 85.4973 79.0566C85.497 79.0141 85.4967 78.9717 85.4963 78.9297C85.496 78.8878 85.4966 78.8461 85.4963 78.8047C85.496 78.7632 85.4957 78.7216 85.4954 78.6807C85.4951 78.6398 85.4947 78.5989 85.4944 78.5586C85.4941 78.5183 85.4937 78.4783 85.4934 78.4385C85.4931 78.3986 85.4927 78.3587 85.4924 78.3193C85.4921 78.28 85.4917 78.241 85.4915 78.2021C85.4912 78.1633 85.4908 78.1243 85.4905 78.0859C85.4902 78.0477 85.4898 78.0094 85.4895 77.9717C85.4892 77.934 85.4888 77.8966 85.4885 77.8594C85.4882 77.8221 85.4878 77.7848 85.4875 77.748C85.4873 77.7112 85.4878 77.6741 85.4875 77.6377C85.4873 77.6014 85.4868 77.5651 85.4866 77.5293C85.4863 77.4936 85.4859 77.4581 85.4856 77.4229C85.4853 77.3875 85.4849 77.3523 85.4846 77.3174C85.4844 77.2826 85.4839 77.2481 85.4836 77.2139C85.4834 77.1796 85.4839 77.1451 85.4836 77.1113C85.4834 77.0774 85.4829 77.0432 85.4827 77.0098C85.4824 76.9764 85.4819 76.9431 85.4817 76.9102C85.4814 76.8774 85.481 76.8448 85.4807 76.8125C85.4805 76.78 85.481 76.7469 85.4807 76.7148L85.4788 76.5254C85.4785 76.4944 85.478 76.4632 85.4778 76.4326C85.4776 76.4021 85.478 76.3718 85.4778 76.3418C85.4776 76.3116 85.477 76.2817 85.4768 76.252C85.4766 76.2222 85.476 76.1924 85.4758 76.1631C85.4756 76.1339 85.476 76.1049 85.4758 76.0762C85.4756 76.0474 85.4751 76.0186 85.4749 75.9902C85.4746 75.9618 85.4741 75.9333 85.4739 75.9053C85.4737 75.8774 85.4741 75.8497 85.4739 75.8223C85.4737 75.7948 85.4731 75.7673 85.4729 75.7402C85.4727 75.7131 85.4731 75.6859 85.4729 75.6592L85.4709 75.501C85.4708 75.4754 85.4711 75.45 85.4709 75.4248C85.4708 75.3994 85.4702 75.3737 85.47 75.3486C85.4698 75.3237 85.4702 75.2989 85.47 75.2744C85.4698 75.2499 85.4692 75.2253 85.469 75.2012C85.4688 75.177 85.4692 75.1527 85.469 75.1289C85.4688 75.1051 85.4682 75.081 85.468 75.0576C85.4678 75.0343 85.4672 75.0112 85.467 74.9883C85.4669 74.9653 85.4672 74.9425 85.467 74.9199C85.4669 74.8973 85.4662 74.8747 85.4661 74.8525C85.4659 74.8303 85.4662 74.808 85.4661 74.7861C85.4659 74.7645 85.4652 74.743 85.4651 74.7217C85.4649 74.7002 85.4652 74.6783 85.4651 74.6572C85.4649 74.6362 85.4643 74.6154 85.4641 74.5947V74.4727C85.464 74.4527 85.4633 74.4327 85.4631 74.4131C85.463 74.3935 85.4633 74.3738 85.4631 74.3545C85.463 74.3354 85.4623 74.3166 85.4622 74.2979C85.462 74.2789 85.4623 74.2598 85.4622 74.2412C85.462 74.2228 85.4613 74.2046 85.4612 74.1865V74.0791C85.4611 74.0617 85.4603 74.0444 85.4602 74.0273C85.4601 74.0102 85.4603 73.9924 85.4602 73.9756C85.4601 73.9589 85.4593 73.9421 85.4592 73.9258V73.8291C85.4592 73.8209 85.4583 73.8128 85.4583 73.8047H93.4641Z" fill="#1B303D" stroke="#1B303D" stroke-width="3"/>
<circle cx="89.5211" cy="66.8509" r="7.85094" fill="#1B303D"/>
<path d="M77.4028 111.619V95.5579L73.5673 95.5579C61.7609 95.5579 49.5474 105.986 49.5474 120.549C49.5474 150.514 106.242 161.841 106.242 181.679C106.242 201.516 69.3246 207.808 69.3246 231.661C69.3246 255.513 96.4732 254.974 96.4732 267.559V281.224C104.324 281.224 104.324 273.313 104.324 267.559C104.324 250.839 78.9734 244.126 78.9734 231.661C78.9734 219.195 118.258 208.228 118.258 181.679C118.258 155.129 62.1205 134.932 62.1205 120.549C62.1205 115.395 67.3345 111.619 69.492 111.619H77.4028Z" fill="#1B303D" stroke="#1B303D"/>
<path d="M101.43 111.619V95.5579L105.266 95.5579C117.072 95.5579 129.285 105.986 129.285 120.549C129.285 150.514 72.5908 161.841 72.5908 181.679C72.5908 201.516 109.508 207.808 109.508 231.661C109.508 255.513 82.3595 254.974 82.3595 267.559V281.224C74.5086 281.224 74.5086 273.313 74.5086 267.559C74.5086 250.839 99.8593 244.126 99.8593 231.661C99.8593 219.195 60.5747 208.228 60.5747 181.679C60.5747 155.129 116.712 134.932 116.712 120.549C116.712 115.395 111.498 111.619 109.341 111.619H101.43Z" fill="#1B303D" stroke="#1B303D"/>
<path d="M4 59H65.4291C65.4291 69.9673 74.5986 78.058 77.715 78.5375V88.6059H45.8917C42.4756 88.6059 36.962 84.111 36.962 80.2155H27.433C22.8183 80.2155 19.0426 75.3012 19.0426 71.2259H12.9297C8.37495 71.2259 4 66.2516 4 62.8955V59Z" fill="#1B303D" stroke="#1B303D" stroke-width="7"/>
<path d="M174.983 59H113.554C113.554 69.9673 104.384 78.058 101.268 78.5375V88.6059H133.091C136.507 88.6059 142.021 84.111 142.021 80.2155H151.55C156.164 80.2155 159.94 75.3012 159.94 71.2259H166.053C170.608 71.2259 174.983 66.2516 174.983 62.8955V59Z" fill="#1B303D" stroke="#1B303D" stroke-width="7"/>
<path d="M529 274L504 259.566L504 288.434L529 274ZM395 276.5L506.5 276.5L506.5 271.5L395 271.5L395 276.5Z" fill="#1B303D"/>
<path d="M221 173L196 158.566L196 187.434L221 173ZM138 175.5L198.5 175.5L198.5 170.5L138 170.5L138 175.5Z" fill="#1B303D"/>
</g>
<defs>
<clipPath id="clip0_104_676">
<rect width="897" height="346" fill="white"/>
</clipPath>
</defs>
</svg>
